<svg width="400" height="157" viewBox="0 0 400 157" fill="none" xmlns="http://www.w3.org/2000/svg">
<g clip-path="url(#clip0_51_36)">
<path d="M35.896 0C42.1142 0 48.0497 2.4258 53.7592 7.2774C55.1159 3.04635 57.7728 0.959037 61.8429 0.959037C68.0611 0.959037 71.1702 4.17463 71.1702 10.5494C71.1702 16.9242 70.944 14.1599 70.5483 17.037C70.1526 19.9141 69.9265 22.0579 69.9265 23.5246C69.9265 24.9914 70.2092 28.207 70.7745 32.0431C71.0571 34.0176 71.1702 35.71 71.1702 37.1204C71.1702 45.0747 67.5523 49.0237 60.3166 49.0237C53.0808 49.0237 50.5936 45.8081 50.2544 39.3205V33.2842C50.0283 30.1815 48.8977 27.53 46.8626 25.2734C44.8276 23.0169 42.4534 21.8886 39.7965 21.8886C34.7089 21.8886 30.8084 24.5401 27.9819 29.7866C25.1555 35.0331 23.7988 42.4233 23.7988 52.0137C23.7988 74.9741 28.7733 86.4262 38.6659 86.4262C48.5585 86.4262 48.7281 81.8566 48.7281 72.6612V71.2508C48.7281 62.9015 52.2329 58.7269 59.2425 58.7269C66.2521 58.7269 65.8564 60.0808 68.0045 62.8451C70.0961 65.553 71.1702 69.3327 71.1702 74.1843C71.1702 81.2925 69.4178 87.7237 65.8564 93.5907C62.2951 99.4014 57.6032 103.576 51.8372 106.002C47.9932 107.638 43.4144 108.484 38.0441 108.484C25.9469 108.484 16.6196 103.858 9.94912 94.6062C3.33522 85.2415 0 72.1534 0 55.2857C0 38.4179 3.16563 24.4272 9.49689 14.6676C15.8282 4.90801 24.5902 0 35.896 0Z" fill="#4E1F08"/>
<path d="M140.814 108.428C128.943 108.428 119.672 103.689 113.058 94.2113C106.388 84.7337 103.053 71.5893 103.053 54.6651C103.053 37.7409 106.444 24.2016 113.284 14.6112C120.068 4.96442 129.452 0.169235 141.436 0.169235C153.42 0.169235 162.634 4.90801 169.418 14.3855C176.201 23.8631 179.65 36.8383 179.65 53.3112C179.65 69.784 173.601 92.6881 161.56 101.658C155.455 106.171 148.559 108.428 140.814 108.428ZM141.266 20.8732C131.995 20.8732 126.964 31.5354 126.23 52.8599V56.2447C126.23 65.9479 127.53 73.5638 130.187 79.2052C132.843 84.7901 136.348 87.6108 140.814 87.6108C145.28 87.6108 146.015 86.5954 148.332 84.5081C150.65 82.4772 152.402 79.7129 153.533 76.3281C155.399 70.6867 156.303 62.9015 156.303 53.0291C156.303 43.1567 155.285 35.5408 153.194 30.4635C150.594 24.0887 146.637 20.8732 141.266 20.8732Z" fill="#4E1F08"/>
<path d="M242.171 27.9249L251.611 78.1333L261.504 27.4736C261.73 26.4581 261.786 25.7248 261.786 25.3299C261.786 23.6939 261.391 22.7348 260.543 22.5656L258.508 21.945C255.851 21.0988 254.494 17.996 254.494 12.5239C254.494 7.05174 257.094 2.0309 262.239 2.0309C267.383 2.0309 266.026 2.20014 268.966 2.59504C271.905 2.93352 274.166 3.15918 275.693 3.15918C277.219 3.15918 280.724 2.87711 284.963 2.36938C286.32 2.14373 287.507 2.08731 288.525 2.08731C291.181 2.08731 293.443 3.21559 295.195 5.41574C296.947 7.61588 297.852 10.3237 297.852 13.5393C297.852 16.7549 297.23 18.5038 295.986 20.4218C294.743 22.3399 293.273 23.299 291.521 23.299H288.864C287.733 23.299 286.829 24.5401 286.207 27.0223L266.704 99.0065C265.348 103.858 263.369 106.284 260.656 106.284C257.942 106.284 258.282 106.171 256.416 106.002C254.494 105.776 253.081 105.72 252.176 105.72C250.028 105.72 247.937 105.833 245.958 106.002C243.98 106.227 242.736 106.284 242.227 106.284C238.949 106.284 236.631 103.858 235.444 99.0065L217.185 27.0223C216.563 24.4272 215.659 23.2425 214.415 23.299H211.306C209.949 23.4118 208.706 22.4527 207.518 20.3654C206.331 18.3345 205.766 16.078 205.766 13.5958C205.766 11.1135 206.67 7.44664 208.479 5.30291C210.288 3.15918 212.606 2.08731 215.546 2.08731C218.485 2.08731 218.937 2.25655 221.764 2.65145C224.534 2.98994 226.682 3.21559 228.095 3.21559C230.865 3.21559 233.296 3.04635 235.387 2.76428C238.157 2.36938 240.192 2.14373 241.436 2.14373C246.806 2.14373 249.463 5.52856 249.463 12.3547C249.463 19.1807 247.937 20.7039 244.828 21.945C242.849 22.7912 241.888 23.8631 241.888 25.1606C241.888 26.4581 242.001 26.9659 242.171 28.0941V27.9249Z" fill="#4E1F08"/>
<path d="M356.868 28.4326V44.0029C357.716 44.285 358.621 44.4542 359.638 44.4542C362.408 44.4542 363.821 43.1003 363.821 40.4488C363.821 37.7973 363.821 38.4743 363.652 37.9666C363.369 36.3306 363.2 35.2023 363.2 34.5817C363.2 32.9457 363.821 31.479 365.122 30.2379C366.422 28.9968 367.948 28.3762 369.7 28.3762C374.449 28.3762 376.823 30.7456 376.823 35.4844C376.823 40.2231 376.54 40.2796 376.032 44.0029C375.806 45.4696 375.749 47.7826 375.749 50.9418C375.749 54.101 375.975 58.1064 376.371 61.8861C376.653 64.7632 376.823 67.189 376.823 69.1635C376.823 74.2972 374.392 76.8922 369.474 76.8922C364.556 76.8922 363.2 74.8613 363.2 70.8559C363.2 66.8505 363.313 68.6558 363.595 67.3018C363.765 66.6813 363.821 65.8351 363.821 64.6504C363.821 62.281 362.182 61.0963 358.847 61.0963C355.512 61.0963 358.055 61.2091 356.812 61.3784V79.7693C356.812 82.8721 357.547 84.7902 358.96 85.4671C359.808 85.862 360.995 86.0877 362.691 86.0877H375.523C378.293 86.0877 380.215 85.6928 381.345 84.903C382.419 84.1132 382.985 82.5336 382.985 80.0514C382.985 77.5692 382.759 76.6665 382.363 73.8459C381.854 70.3482 381.572 67.9224 381.572 66.5685C381.572 63.917 382.419 61.6604 384.228 59.8552C385.981 58.0499 388.185 57.1473 390.899 57.1473C397.004 57.1473 400.057 61.2091 400.057 69.3327C400.057 77.4564 399.943 73.3945 399.774 75.6511C399.491 78.9231 399.322 81.9695 399.322 84.7902C399.322 87.6109 399.435 88.6827 399.717 91.8983C400 95.1139 400.113 97.4833 400.113 99.0065C400.113 101.884 399.435 103.745 398.021 104.648C396.608 105.494 394.291 105.945 390.955 105.945C387.62 105.945 387.677 105.945 385.981 105.776C375.862 105.156 366.591 104.874 358.112 104.874C349.633 104.874 351.102 105.043 345.506 105.438C339.91 105.776 335.67 106.002 332.9 106.002C330.13 106.002 327.473 104.93 325.551 102.786C323.629 100.642 322.668 97.8782 322.668 94.4369C322.668 90.9957 323.29 89.5854 324.534 87.7237C325.777 85.9184 327.191 84.9594 328.886 84.9594H331.826C333.296 84.9594 333.974 84.0568 333.974 82.1951V25.9504C333.974 23.9759 333.239 23.0169 331.826 23.0169H331.204C330.978 23.1297 330.808 23.1861 330.582 23.1861C329.734 23.4118 329.169 23.4682 328.886 23.4682C327.247 23.4682 325.777 22.5656 324.534 20.7039C323.29 18.8423 322.668 16.5857 322.668 13.9342C322.668 11.2828 323.629 7.55947 325.495 5.35932C327.417 3.15918 329.847 2.0309 332.843 2.0309C335.839 2.0309 339.344 2.25656 345.506 2.65145C350.141 2.93352 355.059 3.10277 360.317 3.10277C365.574 3.10277 368.739 2.93352 375.41 2.53863C382.08 2.20014 387.111 1.97449 390.503 1.97449C396.043 1.97449 398.813 4.28746 398.813 8.9134C398.813 13.5393 398.7 12.4675 398.53 16.1908C398.417 18.673 398.361 23.0733 398.361 29.4481V32.5508L398.813 39.4898C398.813 45.7517 395.647 48.9109 389.373 48.9109C383.098 48.9109 380.554 46.2594 380.554 40.9001C380.554 35.5408 380.724 37.1204 381.119 34.1869C381.458 31.2533 381.685 29.0532 381.685 27.6428C381.685 25.0478 381.232 23.4118 380.271 22.6784C379.367 21.945 377.728 21.6065 375.353 21.6065H364.274C360.995 21.6065 358.96 22.0014 358.112 22.7912C357.264 23.581 356.868 25.4427 356.868 28.4326Z" fill="#4E1F08"/>
<path d="M17.8067 135.337H8.19672C7.51837 135.337 7.12267 135.393 7.00961 135.506C6.89655 135.619 6.84002 135.958 6.84002 136.522V145.435C6.84002 146.902 7.00961 147.805 7.40531 147.974C7.5749 148.087 7.85755 148.143 8.19672 148.143C8.5359 148.143 8.81854 148.143 9.15772 148.087C9.3273 148.087 9.55342 148.087 9.83607 148.087C10.3448 148.087 10.5709 148.256 10.5709 148.651C10.5709 149.046 10.3448 149.215 9.83607 149.215C9.3273 149.215 9.44036 149.215 9.04466 149.158C7.91408 148.989 6.95308 148.933 6.04861 148.933C5.14415 148.933 4.18315 148.989 3.44827 149.158C2.76993 149.158 2.43075 149.215 2.37422 149.215C1.86546 149.215 1.63934 149.046 1.63934 148.651C1.63934 148.256 1.86546 148.087 2.37422 148.087C2.88298 148.087 2.7134 148.087 2.82645 148.087C3.56133 148.087 3.90051 148.143 3.95704 148.143C4.63539 148.143 5.08762 147.861 5.31374 147.297C5.42679 146.958 5.48332 146.338 5.48332 145.492V126.085C5.48332 125.013 5.48332 124.336 5.42679 124.111C5.25721 123.377 4.74844 123.039 4.01357 123.039C3.27869 123.039 3.61786 123.039 3.27869 123.095C2.93951 123.095 2.7134 123.152 2.54381 123.152C2.03505 123.152 1.7524 122.926 1.7524 122.475C1.7524 122.023 1.97852 121.854 2.37422 121.854C2.76993 121.854 2.82645 121.854 3.16563 121.967C3.95704 122.193 5.03109 122.305 6.44432 122.305C7.85755 122.305 8.08366 122.193 9.21424 122.023C9.55342 122.023 9.83607 121.967 10.0057 121.967C10.4579 121.967 10.684 122.136 10.684 122.531C10.684 122.926 10.4579 123.152 10.0057 123.152C9.55342 123.152 9.89259 123.152 9.77954 123.152H9.55342C9.10119 123.095 8.76201 123.039 8.42284 123.039C7.85755 123.039 7.46184 123.264 7.23573 123.716C7.00961 124.167 6.89655 125.013 6.89655 126.198V133.306C6.89655 133.87 6.89655 134.209 7.00961 134.322C7.06614 134.434 7.34878 134.491 7.68796 134.491H17.2979C17.8632 134.491 18.2024 134.434 18.3154 134.322C18.4285 134.209 18.485 133.87 18.485 133.306V125.972C18.485 124.957 18.4285 124.224 18.2589 123.885C18.0328 123.264 17.524 122.982 16.6761 122.982H16.3934L15.7151 123.095H15.4324C14.8672 123.095 14.641 122.87 14.641 122.475C14.641 122.08 14.8106 121.967 15.2063 121.967C15.602 121.967 15.5455 121.967 15.8847 122.08C16.6196 122.249 17.6936 122.362 19.0503 122.362C20.407 122.362 21.0854 122.249 22.329 122.023C22.4421 122.023 22.6682 122.023 22.8943 122.023C23.3465 122.023 23.5726 122.193 23.5726 122.588C23.5726 122.982 23.29 123.208 22.7812 123.208C22.2725 123.208 22.3855 123.208 22.0464 123.152C21.7072 123.152 21.4811 123.095 21.3115 123.095C20.5766 123.095 20.1244 123.434 19.8982 124.167C19.7852 124.562 19.7287 125.239 19.7287 126.198V145.153C19.7287 147.015 20.0113 148.03 20.5201 148.199C20.6897 148.199 20.9723 148.256 21.3115 148.256C21.6507 148.256 21.7072 148.256 21.9898 148.256C22.2725 148.256 22.4986 148.256 22.6682 148.256C23.2335 148.256 23.4596 148.482 23.4596 148.933C23.4596 149.384 23.2335 149.497 22.7812 149.497C22.329 149.497 22.2159 149.497 21.8202 149.328C21.1419 149.215 20.294 149.158 19.1068 149.158C17.9197 149.158 18.0328 149.158 17.1849 149.328C16.3369 149.441 15.7151 149.497 15.3194 149.497C14.9237 149.497 14.5845 149.271 14.5845 148.876C14.5845 148.482 14.8106 148.256 15.3194 148.256C15.2063 148.256 15.3194 148.256 15.7716 148.256C16.3934 148.256 16.7891 148.312 16.9587 148.312C17.9197 148.312 18.4285 147.635 18.4285 146.338V136.522C18.4285 136.07 18.4285 135.788 18.3154 135.676C18.2589 135.563 18.0328 135.506 17.6936 135.506L17.8067 135.337Z" fill="#4E1F08"/>
<path d="M27.6993 139.286V139.907C27.6993 142.671 28.208 144.815 29.169 146.338C30.1865 147.917 31.5432 148.707 33.2957 148.707C35.0481 148.707 35.3872 148.369 36.2352 147.635C37.0831 146.902 37.6484 145.943 37.9876 144.702C38.1006 144.25 38.2137 143.573 38.3267 142.784C38.3267 142.276 38.5529 142.05 38.892 142.05C39.2312 142.05 39.4573 142.276 39.4573 142.784C39.4573 144.589 38.8355 146.225 37.5919 147.579C36.3482 148.933 34.8785 149.61 33.2391 149.61C31.5998 149.61 29.5647 148.707 28.3211 146.958C27.0774 145.209 26.4556 142.897 26.4556 140.019C26.4556 137.142 27.0774 134.434 28.3776 132.516C29.6778 130.598 31.3171 129.639 33.3522 129.639C35.3872 129.639 36.6874 130.429 37.818 131.952C39.0051 133.475 39.5704 135.45 39.5704 137.876C39.5704 140.301 39.5704 138.948 39.4008 139.06C39.2877 139.173 39.0051 139.286 38.5529 139.286H27.6427H27.6993ZM33.3522 130.655C31.7694 130.655 30.4692 131.332 29.5082 132.742C28.4907 134.152 27.9254 135.958 27.8123 138.271H38.0441C38.3267 138.271 38.4963 138.101 38.4963 137.819C38.4963 135.676 38.0441 133.927 37.0831 132.629C36.1221 131.332 34.935 130.655 33.4087 130.655H33.3522Z" fill="#4E1F08"/>
<path d="M46.58 123.039V145.153C46.58 146.281 46.58 146.902 46.58 147.071C46.6931 147.861 47.0888 148.256 47.7106 148.256C48.3324 148.256 48.2759 148.256 48.5585 148.256C48.5585 148.256 48.6716 148.256 48.7846 148.256H49.0107C49.6891 148.256 49.9717 148.425 49.9717 148.764C49.9717 149.102 49.6891 149.328 49.1803 149.328C48.6716 149.328 48.6716 149.328 48.4455 149.271C47.4845 149.158 46.58 149.102 45.8451 149.102C45.1102 149.102 44.5449 149.102 44.2058 149.158L43.1317 149.328C42.9621 149.328 42.7925 149.328 42.5664 149.328C42.0011 149.328 41.775 149.158 41.775 148.764C41.775 148.369 42.0011 148.199 42.5099 148.199C43.0187 148.199 42.9056 148.199 43.2448 148.199C43.5839 148.199 43.8101 148.199 43.9797 148.199C44.7711 148.199 45.2233 147.861 45.3929 147.128C45.3929 147.015 45.3929 146.281 45.3929 144.984V124.562C45.3929 123.885 45.2798 123.434 45.0537 123.152C44.8276 122.926 44.4319 122.757 43.8101 122.757H43.3013C43.0752 122.757 42.9621 122.757 42.9056 122.757C42.7925 122.757 42.5664 122.757 42.3968 122.757C41.9446 122.757 41.7185 122.588 41.7185 122.193C41.7185 121.798 42.0011 121.628 42.5099 121.628H42.736C42.8491 121.628 42.9056 121.628 42.9621 121.628H43.6405C43.6405 121.685 44.3188 121.798 44.3188 121.798L45.1668 121.685C45.619 121.685 45.8451 121.628 45.7321 121.628C46.2408 121.628 46.5235 121.967 46.5235 122.588V122.7C46.5235 122.757 46.5235 122.813 46.5235 122.87L46.58 123.039Z" fill="#4E1F08"/>
<path d="M55.4551 132.742V133.927C56.4161 131.106 58.1119 129.696 60.4862 129.696C62.8604 129.696 63.8214 130.598 64.952 132.347C66.0825 134.096 66.6478 136.409 66.6478 139.342C66.6478 142.276 66.0825 144.984 64.8954 146.902C63.7648 148.764 62.182 149.723 60.26 149.723C58.3381 149.723 56.5856 148.594 55.4551 146.394V154.01C55.4551 155.195 55.8508 155.759 56.6987 155.759H56.9814C57.1509 155.759 57.3771 155.759 57.6032 155.759H58.225C58.6772 155.759 58.9033 155.928 58.9033 156.267C58.9033 156.605 58.6772 156.774 58.225 156.774C57.7728 156.774 57.8858 156.774 57.7728 156.774C56.8683 156.662 55.9073 156.549 54.7767 156.549C53.6461 156.549 53.0808 156.605 52.1764 156.774C51.8372 156.774 51.6111 156.831 51.498 156.831C50.9893 156.831 50.7632 156.662 50.7632 156.267C50.7632 155.872 50.9893 155.703 51.385 155.703C51.7807 155.703 51.7807 155.703 52.0068 155.703C52.0068 155.703 52.1764 155.703 52.4025 155.703H52.9113C53.8157 155.703 54.3245 155.138 54.381 154.067V153.164V133.363C54.381 132.121 54.2114 131.445 53.8723 131.219C53.7027 131.106 53.42 131.05 53.0808 131.05C52.7417 131.05 52.6851 131.05 52.2329 131.106C52.0068 131.106 51.7241 131.106 51.385 131.106C51.0458 131.106 50.7632 130.937 50.7632 130.542C50.7632 130.147 50.9893 129.978 51.4415 129.978C51.8937 129.978 51.7241 129.978 52.0633 130.034C52.4025 130.034 52.7982 130.091 53.307 130.091C53.8157 130.091 53.7592 130.091 54.0984 130.034C54.4375 130.034 54.7202 129.978 54.8898 129.978C55.342 129.978 55.5681 130.316 55.5681 130.993V131.332C55.5681 131.67 55.5681 132.065 55.5116 132.629L55.4551 132.742ZM56.3595 133.588C55.6812 135.055 55.3985 137.029 55.3985 139.625C55.3985 142.22 55.6247 144.25 56.0769 145.661C56.3595 146.563 56.9248 147.353 57.6597 147.917C58.3946 148.482 59.2425 148.764 60.0905 148.764C61.7298 148.764 63.03 147.917 63.991 146.281C64.952 144.645 65.4607 142.445 65.4607 139.625C65.4607 136.804 65.0085 134.604 64.1606 133.024C63.3126 131.445 62.069 130.655 60.4862 130.655C58.9033 130.655 57.2075 131.614 56.3595 133.532V133.588Z" fill="#4E1F08"/>
<path d="M74.1662 131.332C74.1662 131.501 74.1662 131.783 74.1662 132.121V145.153C74.1662 146.338 74.1662 146.958 74.1662 147.128C74.2793 147.861 74.7315 148.199 75.4098 148.199C76.0882 148.199 75.9751 148.199 76.1447 148.199H76.5404C77.2188 148.199 77.5014 148.369 77.5014 148.707C77.5014 149.046 77.2188 149.215 76.71 149.215C76.2012 149.215 76.2012 149.215 75.9751 149.158C74.9576 149.046 73.9966 148.989 73.2052 148.989C72.4138 148.989 71.905 148.989 71.5093 149.046L70.4353 149.215C70.2657 149.215 70.0961 149.215 69.87 149.215C69.3047 149.215 69.0786 149.046 69.0786 148.651C69.0786 148.256 69.3047 148.087 69.7569 148.087C70.2092 148.087 70.3222 148.087 70.7179 148.087C70.7179 148.087 70.831 148.087 70.944 148.087H71.2267C72.0746 148.087 72.6399 147.748 72.8095 147.128C72.866 146.902 72.9226 146.169 72.9226 144.927V132.742C72.9226 132.065 72.8095 131.67 72.5834 131.388C72.3573 131.162 71.8485 131.05 71.1702 131.05C70.4918 131.05 70.4353 131.05 70.2657 131.05H69.9265C69.8135 131.05 69.7004 131.05 69.6439 131.05C69.1916 131.05 68.9655 130.88 68.9655 130.485C68.9655 130.091 69.2482 129.921 69.8135 129.921H70.3222L70.944 130.034H71.2832C71.4528 130.034 71.5659 130.034 71.6224 130.034C71.792 130.034 72.1877 130.034 72.6964 129.921C72.753 129.921 72.866 129.921 73.0356 129.921H73.3748C73.8836 129.921 74.1097 130.26 74.1097 130.88V131.162L74.1662 131.332ZM74.5054 125.521C74.5054 126.536 74.0531 127.044 73.1487 127.044C72.2442 127.044 71.905 126.536 71.905 125.577C71.905 124.618 72.3573 124.111 73.2052 124.111C74.0531 124.111 74.4488 124.562 74.4488 125.521H74.5054Z" fill="#4E1F08"/>
<path d="M84.1719 131.332C84.1719 132.234 84.1153 132.968 84.1153 133.475C85.359 130.937 87.1114 129.696 89.3725 129.696C91.6337 129.696 92.6512 130.485 93.5557 132.009C94.234 133.137 94.5167 134.886 94.5167 137.368V145.886C94.5167 146.676 94.5732 147.24 94.7428 147.579C94.9689 148.03 95.4212 148.256 96.0995 148.256C96.7779 148.256 96.4952 148.256 96.7779 148.256C97.0605 148.256 97.2866 148.256 97.4562 148.256C97.965 148.256 98.1911 148.425 98.1911 148.764C98.1911 149.102 97.965 149.384 97.4562 149.384C96.9474 149.384 97.117 149.384 96.6648 149.328C96.8344 149.328 96.3822 149.328 95.4212 149.215C94.7428 149.215 94.234 149.158 93.8949 149.158H93.5557C92.9339 149.158 92.199 149.158 91.3511 149.271C91.0684 149.271 90.8423 149.271 90.5596 149.271C89.9944 149.271 89.7682 149.102 89.7682 148.707C89.7682 148.312 89.9944 148.199 90.5031 148.199H90.7292C90.7858 148.199 90.8423 148.199 90.8988 148.199H91.5206C91.5772 148.312 91.7468 148.312 91.8598 148.312C92.4816 148.312 92.8773 148.087 93.1035 147.579C93.3296 147.071 93.4426 146.225 93.4426 144.984V137.424C93.4426 135.111 93.1035 133.419 92.4251 132.347C91.7468 131.275 90.7292 130.768 89.2595 130.768C87.7897 130.768 85.8677 131.614 84.9633 133.363C84.3414 134.491 84.0588 136.07 84.0588 137.989V145.943C84.1153 146.789 84.1719 147.353 84.2849 147.635C84.511 148.087 84.9633 148.312 85.6416 148.312C86.32 148.312 86.1504 148.312 86.3765 148.256C86.4896 148.256 86.7157 148.256 86.8853 148.256C87.3375 148.256 87.5636 148.425 87.5636 148.764C87.5636 149.102 87.3375 149.271 86.8853 149.271C86.433 149.271 86.433 149.271 86.0939 149.215C85.472 149.102 84.6806 149.046 83.6631 149.046H83.4935C82.8152 149.046 82.0238 149.102 81.0628 149.271C80.6671 149.271 80.3279 149.328 80.0452 149.328C79.593 149.328 79.3669 149.102 79.3669 148.707C79.3669 148.312 79.593 148.199 80.0452 148.199C80.4975 148.199 80.4409 148.199 80.7801 148.256C81.1193 148.256 81.3454 148.312 81.515 148.312C82.2499 148.312 82.7021 147.917 82.8717 147.071C82.8717 146.846 82.9282 146.112 82.9282 144.927V134.886C82.9282 133.645 82.9282 132.855 82.8717 132.629C82.7021 131.727 82.1933 131.219 81.4585 131.219C81.6281 131.219 81.3454 131.219 80.554 131.275C80.4409 131.275 80.2714 131.275 80.0452 131.275C79.593 131.275 79.3669 131.106 79.3669 130.768C79.3669 130.429 79.593 130.203 80.0452 130.203H80.3844C80.7801 130.26 81.2889 130.316 81.9107 130.316C82.5325 130.316 82.4195 130.316 82.7586 130.26C82.8152 130.26 82.9282 130.26 83.0978 130.26H83.3239C83.7762 130.26 84.0023 130.598 84.0023 131.275C84.0023 131.952 84.0023 131.501 84.0023 131.501L84.1719 131.332Z" fill="#4E1F08"/>
<path d="M100.283 142.276C100.283 140.866 101.074 139.737 102.6 139.004C102.374 138.214 102.261 137.312 102.261 136.409C102.261 134.547 102.77 132.968 103.844 131.67C104.918 130.373 106.218 129.752 107.744 129.752C109.271 129.752 109.949 130.26 111.136 131.219C111.136 130.655 111.08 130.373 111.08 130.316C111.08 129.357 111.362 128.567 111.871 128.003C112.38 127.383 113.058 127.101 113.906 127.101C114.754 127.101 115.263 127.326 115.715 127.834C116.167 128.342 116.393 128.962 116.393 129.696C116.393 130.993 115.885 131.614 114.924 131.614C113.963 131.614 113.793 131.219 113.793 130.485C113.793 129.752 114.132 129.357 114.811 129.357C115.489 129.357 114.924 129.357 114.98 129.357H115.093C115.206 129.357 115.263 129.357 115.263 129.244C115.263 129.132 115.263 128.962 115.093 128.793C114.811 128.285 114.415 128.003 113.906 128.003C113.397 128.003 112.945 128.229 112.606 128.737C112.267 129.188 112.041 129.752 112.041 130.373C112.041 130.993 112.154 131.557 112.38 132.234L112.889 133.983C113.058 134.547 113.115 135.168 113.115 135.958C113.115 137.876 112.606 139.455 111.588 140.696C110.571 141.938 109.214 142.502 107.631 142.502C106.049 142.502 104.24 141.655 103.166 139.907C102.092 140.414 101.526 141.204 101.526 142.389C101.526 143.574 102.883 144.871 105.54 145.04L108.423 145.21C112.945 145.435 115.263 147.353 115.263 150.851C115.263 154.349 114.585 154.179 113.228 155.308C111.871 156.379 110.006 156.944 107.688 156.944C105.37 156.944 103.166 156.436 101.809 155.42C100.396 154.405 99.7173 152.995 99.7173 151.133C99.7173 149.271 100.961 146.846 103.448 145.774C101.357 145.097 100.339 143.968 100.339 142.332L100.283 142.276ZM100.791 151.02C100.791 152.543 101.413 153.728 102.6 154.631C103.844 155.533 105.483 155.928 107.575 155.928C109.666 155.928 111.193 155.477 112.323 154.518C113.454 153.615 114.076 152.318 114.076 150.794C114.076 147.692 111.815 146.112 107.236 146.112C102.657 146.112 103.618 146.563 102.487 147.41C101.357 148.256 100.791 149.497 100.791 151.02ZM103.392 136.522C103.392 137.989 103.787 139.173 104.522 140.132C105.257 141.035 106.275 141.543 107.462 141.543C108.649 141.543 109.893 141.035 110.684 139.963C111.532 138.891 111.928 137.537 111.928 135.845C111.928 134.152 111.532 133.137 110.741 132.121C109.949 131.162 108.932 130.655 107.744 130.655C106.557 130.655 105.427 131.219 104.579 132.291C103.787 133.363 103.335 134.773 103.335 136.522H103.392Z" fill="#4E1F08"/>
<path d="M130.695 133.363L134.878 148.425L139.457 133.532C139.683 132.742 139.796 132.178 139.796 131.896C139.796 131.332 139.457 131.106 138.835 131.106C138.214 131.106 138.44 131.106 138.101 131.106C137.761 131.106 137.535 131.106 137.366 131.106C136.744 131.106 136.461 130.937 136.461 130.542C136.461 130.147 136.687 130.034 137.083 130.034C137.479 130.034 137.648 130.034 137.874 130.091C137.761 130.091 138.044 130.091 138.779 130.147C139.514 130.147 139.853 130.203 139.796 130.203H139.966C140.192 130.203 140.531 130.203 140.927 130.147C141.323 130.147 141.662 130.091 141.888 130.091C142.34 130.034 142.679 129.978 142.962 129.978C143.414 129.978 143.64 130.147 143.64 130.485C143.64 130.824 143.471 130.993 143.075 130.993C142.679 130.993 142.962 130.993 142.849 130.993H142.51C142.51 130.993 142.397 130.993 142.284 130.993C141.775 130.993 141.379 131.332 141.097 131.952C141.097 132.009 140.871 132.573 140.588 133.588L136.066 147.974C135.331 150.4 134.539 152.318 133.804 153.728C132.674 155.872 131.261 156.887 129.565 156.887C127.869 156.887 127.53 156.549 126.795 155.815C126.06 155.082 125.664 154.179 125.664 153.107C125.664 152.036 126.23 150.851 127.304 150.851C128.378 150.851 128.434 151.302 128.434 152.148C128.434 152.995 128.095 153.39 127.36 153.39H127.247C127.191 153.39 127.077 153.39 127.021 153.39C126.908 153.39 126.795 153.446 126.795 153.615C126.795 154.236 127.077 154.743 127.643 155.251C128.208 155.759 128.83 155.985 129.565 155.985C130.921 155.985 132.165 154.856 133.239 152.6C133.804 151.415 134.087 150.512 134.087 149.835C134.087 149.159 134.087 149.158 133.917 148.82L133.691 148.03L129.226 132.629C128.886 131.557 128.434 130.993 127.869 130.993H127.134C126.964 130.993 126.795 130.993 126.682 130.824C126.569 130.711 126.512 130.598 126.512 130.485C126.512 130.203 126.682 130.034 127.077 130.034C127.473 130.034 127.417 130.034 127.53 130.034C128.265 130.147 128.886 130.26 129.452 130.26C130.017 130.26 130.413 130.26 131.148 130.147C131.882 130.034 132.448 130.034 132.843 130.034C133.239 130.034 133.635 130.203 133.635 130.542C133.635 130.88 133.352 131.05 132.843 131.05C132.335 131.05 132.448 131.05 132.052 131.05C131.713 131.05 131.43 131.05 131.261 131.05C130.582 131.05 130.3 131.275 130.3 131.783C130.3 132.291 130.3 132.121 130.356 132.46L130.639 133.363H130.695Z" fill="#4E1F08"/>
<path d="M158.225 139.737C158.225 142.614 157.547 144.984 156.246 146.845C154.946 148.707 153.25 149.61 151.215 149.61C149.18 149.61 147.484 148.707 146.184 146.902C144.884 145.097 144.262 142.727 144.262 139.85C144.262 136.973 144.941 134.434 146.241 132.516C147.598 130.598 149.293 129.639 151.328 129.639C153.363 129.639 154.946 130.598 156.246 132.516C157.547 134.434 158.225 136.804 158.225 139.681V139.737ZM145.393 139.907C145.393 142.558 145.902 144.702 146.976 146.338C148.05 147.974 149.406 148.764 151.159 148.764C152.911 148.764 154.324 147.917 155.399 146.225C156.473 144.533 157.038 142.332 157.038 139.625C157.038 136.917 156.473 134.942 155.399 133.25C154.324 131.557 152.968 130.768 151.272 130.768C149.576 130.768 148.05 131.614 146.976 133.306C145.902 134.999 145.336 137.199 145.336 139.963L145.393 139.907Z" fill="#4E1F08"/>
<path d="M174.901 145.492C174.053 148.256 172.131 149.666 169.192 149.666C166.252 149.666 165.461 148.876 164.556 147.24C164.047 146.225 163.765 144.25 163.765 141.317V132.291C163.652 131.501 163.2 131.05 162.465 131.05H162.125C161.956 131.05 161.843 131.05 161.73 131.05C161.391 131.05 161.165 131.106 161.051 131.106C160.543 131.106 160.26 130.88 160.26 130.485C160.26 130.091 160.486 130.034 160.938 130.034C161.391 130.034 161.391 130.034 161.786 130.034C162.126 130.034 162.408 130.034 162.634 130.034C162.86 130.034 163.087 130.034 163.482 130.034C163.821 130.034 164.104 130.034 164.33 130.034C164.726 130.034 164.952 130.203 164.952 130.542V134.152V141.261C164.952 143.856 165.178 145.604 165.574 146.507C166.252 147.974 167.496 148.651 169.474 148.651C171.453 148.651 171.509 148.369 172.414 147.748C173.318 147.128 173.94 146.394 174.279 145.492C174.788 144.194 175.014 142.22 175.014 139.512V134.999C175.014 133.25 174.958 132.178 174.788 131.727C174.618 131.275 174.223 131.05 173.657 131.05C173.092 131.05 173.262 131.05 172.923 131.05C172.583 131.05 172.357 131.05 172.188 131.05C171.679 131.05 171.396 130.88 171.396 130.485C171.396 130.091 171.679 129.978 172.188 129.978C172.696 129.978 172.527 129.978 172.64 129.978C173.149 129.978 173.601 129.978 174.053 129.978H174.788C174.958 129.978 175.24 129.978 175.579 129.921C176.088 129.921 176.314 130.203 176.314 130.711V132.686C176.258 132.686 176.201 134.209 176.201 134.209V145.492C176.201 147.24 176.653 148.087 177.558 148.087C178.462 148.087 177.841 148.087 177.954 148.087H179.197C179.65 148.03 179.876 148.143 179.876 148.482C179.876 148.82 179.65 149.046 179.197 149.046C178.745 149.046 178.858 149.046 178.575 148.989C178.462 148.989 178.236 148.989 177.954 148.989C177.671 148.989 177.501 148.989 177.332 148.989C177.106 148.989 176.88 148.989 176.71 148.989H176.258C176.258 149.046 175.862 149.046 175.862 149.046C175.353 149.046 175.071 148.707 175.071 148.03V145.379L174.901 145.492Z" fill="#4E1F08"/>
<path d="M205.709 145.266C205.992 146.507 206.218 147.635 206.388 148.594L206.501 147.861L206.784 146.338L206.953 145.379L209.497 132.178C209.497 132.178 209.497 132.065 209.497 131.952V131.783C209.497 131.332 209.214 131.106 208.649 131.106C208.084 131.106 208.253 131.106 208.027 131.106H207.462C207.292 131.106 207.066 131.106 206.84 131.106C206.331 131.106 206.049 130.937 206.049 130.598C206.049 130.26 206.275 130.034 206.784 130.034H207.575C208.875 130.26 209.836 130.316 210.458 130.316C211.08 130.316 211.306 130.316 212.041 130.147C212.21 130.147 212.549 130.147 212.945 130.147C213.341 130.147 213.737 130.316 213.737 130.655C213.737 130.993 213.567 131.162 213.171 131.162C212.776 131.162 213.058 131.162 212.945 131.162H212.663C212.493 131.162 212.21 131.106 211.871 131.106C211.532 131.106 211.08 131.332 210.91 131.727C210.854 131.839 210.741 132.291 210.571 132.968L207.575 147.297C207.575 147.522 207.462 147.917 207.349 148.369C207.236 149.271 206.897 149.723 206.388 149.723C205.879 149.723 205.823 149.61 205.709 149.384C205.596 149.158 205.427 148.594 205.201 147.579L201.922 132.065L201.696 133.024L201.47 134.209L201.244 135.224L198.474 147.579C198.304 148.369 198.191 148.82 198.135 148.876C197.965 149.441 197.626 149.666 197.23 149.666C196.834 149.666 196.382 149.328 196.269 148.594L195.986 147.071L193.103 132.911C192.877 131.67 192.482 131.106 192.029 131.106C191.577 131.106 191.577 131.106 191.464 131.106C191.295 131.106 191.125 131.106 190.899 131.106C190.334 131.106 190.051 130.937 190.051 130.598C190.051 130.26 190.334 129.978 190.842 129.978C191.351 129.978 191.464 129.978 191.69 130.034C192.595 130.147 193.386 130.203 193.951 130.203C194.517 130.203 195.025 130.203 195.986 130.034C196.439 130.034 196.834 129.978 197.061 129.978C197.513 129.978 197.739 130.147 197.739 130.485C197.739 130.824 197.513 130.993 197.061 130.993H195.647H195.195C194.46 130.993 194.121 131.275 194.121 131.839C194.121 132.404 194.121 132.347 194.178 132.629L196.608 145.153C196.721 145.604 196.891 146.451 197.061 147.692L197.174 148.651L200.848 131.952C200.848 131.67 201.018 131.275 201.131 130.768C201.244 130.26 201.526 129.978 201.809 129.978C202.092 129.978 202.431 130.373 202.544 131.05C202.544 131.162 202.6 131.445 202.713 131.839L205.596 145.097L205.709 145.266Z" fill="#4E1F08"/>
<path d="M219.333 133.137C220.52 130.88 221.933 129.696 223.686 129.696C225.438 129.696 225.834 130.147 226.625 130.993C227.417 131.896 227.812 132.968 227.812 134.322C227.812 135.676 227.643 135.901 227.247 136.522C226.851 137.142 226.399 137.424 225.834 137.424C224.986 137.424 224.534 136.973 224.534 136.014C224.534 135.055 224.873 134.886 225.495 134.886C226.116 134.886 225.834 134.886 226.003 134.999C226.06 135.055 226.173 135.111 226.23 135.111C226.512 135.111 226.625 134.717 226.625 133.983C226.625 133.25 226.343 132.291 225.777 131.614C225.212 130.937 224.534 130.598 223.742 130.598C222.951 130.598 221.99 130.993 221.255 131.727C220.52 132.46 220.011 133.363 219.729 134.491C219.446 135.732 219.333 137.481 219.333 139.681V144.476C219.333 146.112 219.446 147.184 219.616 147.579C219.785 147.974 220.237 148.199 220.916 148.199C221.594 148.199 221.029 148.199 221.142 148.199H221.82H222.046C222.725 148.199 223.007 148.369 223.007 148.707C223.007 149.046 222.781 149.271 222.329 149.271C221.877 149.271 221.877 149.271 221.594 149.215C220.916 149.102 220.068 148.989 218.994 148.989C217.92 148.989 217.92 148.989 217.128 149.158C216.337 149.271 215.715 149.328 215.376 149.328C215.037 149.328 214.641 149.158 214.641 148.82C214.641 148.482 214.924 148.199 215.546 148.199C215.546 148.199 215.546 148.199 215.772 148.199H216.507C216.507 148.256 216.789 148.256 216.789 148.256C217.524 148.256 217.92 147.917 218.146 147.297C218.259 146.958 218.315 146.338 218.315 145.379V132.686C218.202 131.614 217.863 131.106 217.241 131.106C216.62 131.106 216.959 131.106 216.563 131.106H215.885C215.772 131.162 215.602 131.162 215.432 131.162C214.924 131.162 214.698 130.993 214.698 130.598C214.698 130.203 214.98 130.091 215.546 130.091H216.62C216.733 130.203 216.902 130.203 217.072 130.203C217.241 130.203 217.524 130.203 217.863 130.147H218.372C218.542 130.034 218.711 130.034 218.881 130.034C219.276 130.034 219.446 130.316 219.446 130.824V131.219C219.446 131.952 219.389 132.573 219.389 133.193L219.333 133.137Z" fill="#4E1F08"/>
<path d="M234.596 131.332C234.596 131.501 234.596 131.783 234.596 132.121V145.153C234.596 146.338 234.596 146.958 234.596 147.128C234.709 147.861 235.161 148.199 235.839 148.199C236.518 148.199 236.405 148.199 236.574 148.199H236.97C237.648 148.199 237.931 148.369 237.931 148.707C237.931 149.046 237.648 149.215 237.14 149.215C236.631 149.215 236.631 149.215 236.405 149.158C235.387 149.046 234.426 148.989 233.635 148.989C232.843 148.989 232.335 148.989 231.939 149.046L230.865 149.215C230.695 149.215 230.526 149.215 230.3 149.215C229.734 149.215 229.508 149.046 229.508 148.651C229.508 148.256 229.734 148.087 230.187 148.087C230.639 148.087 230.752 148.087 231.148 148.087C231.148 148.087 231.261 148.087 231.374 148.087H231.656C232.504 148.087 233.07 147.748 233.239 147.128C233.296 146.902 233.352 146.169 233.352 144.927V132.742C233.352 132.065 233.239 131.67 232.956 131.388C232.73 131.162 232.222 131.05 231.543 131.05C230.865 131.05 230.808 131.05 230.639 131.05H230.3C230.187 131.05 230.073 131.05 230.017 131.05C229.565 131.05 229.339 130.88 229.339 130.485C229.339 130.091 229.621 129.921 230.187 129.921H230.695L231.317 130.034H231.656C231.826 130.034 231.939 130.034 231.995 130.034C232.165 130.034 232.561 130.034 233.07 129.921C233.126 129.921 233.239 129.921 233.409 129.921H233.748C234.257 129.921 234.483 130.26 234.483 130.88V131.162L234.596 131.332ZM234.878 125.521C234.878 126.536 234.426 127.044 233.522 127.044C232.617 127.044 232.278 126.536 232.278 125.577C232.278 124.618 232.73 124.111 233.578 124.111C234.426 124.111 234.822 124.562 234.822 125.521H234.878Z" fill="#4E1F08"/>
<path d="M245.619 130.147H246.41C246.41 130.091 246.693 130.091 246.693 130.091C247.202 130.091 247.484 130.26 247.484 130.655C247.484 131.05 247.258 131.162 246.806 131.162H246.128C245.789 131.162 245.449 131.162 245.167 131.162H244.432C243.754 131.162 243.358 131.219 243.245 131.388C243.132 131.557 243.019 131.839 243.019 132.178V142.276C243.019 144.702 243.188 146.394 243.584 147.297C243.98 148.256 244.601 148.707 245.562 148.707C247.145 148.707 247.937 147.297 247.937 144.533V141.373C247.937 140.809 248.106 140.584 248.445 140.584C248.785 140.584 248.841 140.64 248.898 140.809C248.954 140.978 248.954 141.373 248.954 142.107V144.42C248.954 147.917 247.767 149.666 245.449 149.666C243.132 149.666 242.736 148.764 242.227 146.958C242.001 146.225 241.888 144.645 241.888 142.276V132.178C241.888 131.445 241.718 131.106 241.323 131.106C240.927 131.106 241.097 131.106 240.814 131.106H240.079C240.079 131.162 239.57 131.162 239.57 131.162C239.175 131.162 238.949 130.993 238.949 130.655C238.949 130.316 239.231 130.091 239.74 130.091C240.249 130.091 240.192 130.091 240.418 130.091C240.644 130.091 240.814 130.091 240.984 130.091C241.662 130.091 242.001 129.526 242.001 128.398V126.706C242.001 125.972 242.058 125.465 242.227 125.295C242.284 125.239 242.453 125.183 242.623 125.183C242.962 125.183 243.132 125.408 243.132 125.916V128.398C243.132 129.188 243.132 129.696 243.245 129.865C243.301 130.034 243.584 130.091 243.98 130.091H245.619V130.147Z" fill="#4E1F08"/>
<path d="M253.477 139.286V139.907C253.477 142.671 253.985 144.815 254.946 146.338C255.964 147.917 257.321 148.707 259.073 148.707C260.825 148.707 261.165 148.369 262.012 147.635C262.86 146.902 263.426 145.943 263.765 144.702C263.878 144.25 263.991 143.573 264.104 142.784C264.104 142.276 264.33 142.05 264.669 142.05C265.008 142.05 265.235 142.276 265.235 142.784C265.235 144.589 264.613 146.225 263.369 147.579C262.125 148.933 260.656 149.61 259.016 149.61C257.377 149.61 255.342 148.707 254.098 146.958C252.855 145.209 252.233 142.897 252.233 140.019C252.233 137.142 252.855 134.434 254.155 132.516C255.455 130.598 257.094 129.639 259.129 129.639C261.165 129.639 262.465 130.429 263.595 131.952C264.782 133.475 265.348 135.45 265.348 137.876C265.348 140.301 265.348 138.948 265.178 139.06C265.065 139.173 264.782 139.286 264.33 139.286H253.42H253.477ZM259.129 130.655C257.547 130.655 256.246 131.332 255.285 132.742C254.268 134.152 253.703 135.958 253.59 138.271H263.821C264.104 138.271 264.274 138.101 264.274 137.819C264.274 135.676 263.821 133.927 262.86 132.629C261.899 131.332 260.712 130.655 259.186 130.655H259.129Z" fill="#4E1F08"/>
<path d="M283.098 131.332C283.098 131.501 283.098 131.783 283.098 132.121V145.153C283.098 146.338 283.098 146.958 283.098 147.128C283.211 147.861 283.663 148.199 284.341 148.199C285.02 148.199 284.907 148.199 285.076 148.199H285.472C286.15 148.199 286.433 148.369 286.433 148.707C286.433 149.046 286.15 149.215 285.642 149.215C285.133 149.215 285.133 149.215 284.907 149.158C283.889 149.046 282.928 148.989 282.137 148.989C281.345 148.989 280.837 148.989 280.441 149.046L279.367 149.215C279.197 149.215 279.028 149.215 278.802 149.215C278.236 149.215 278.01 149.046 278.01 148.651C278.01 148.256 278.236 148.087 278.689 148.087C279.141 148.087 279.254 148.087 279.65 148.087C279.65 148.087 279.763 148.087 279.876 148.087H280.158C281.006 148.087 281.572 147.748 281.741 147.128C281.798 146.902 281.854 146.169 281.854 144.927V132.742C281.854 132.065 281.741 131.67 281.458 131.388C281.232 131.162 280.724 131.05 280.045 131.05C279.367 131.05 279.31 131.05 279.141 131.05H278.802C278.689 131.05 278.575 131.05 278.519 131.05C278.067 131.05 277.841 130.88 277.841 130.485C277.841 130.091 278.123 129.921 278.689 129.921H279.197L279.819 130.034H280.158C280.328 130.034 280.441 130.034 280.497 130.034C280.667 130.034 281.063 130.034 281.572 129.921C281.628 129.921 281.741 129.921 281.911 129.921H282.25C282.759 129.921 282.985 130.26 282.985 130.88V131.162L283.098 131.332ZM283.437 125.521C283.437 126.536 282.985 127.044 282.08 127.044C281.176 127.044 280.837 126.536 280.837 125.577C280.837 124.618 281.289 124.111 282.137 124.111C282.985 124.111 283.38 124.562 283.38 125.521H283.437Z" fill="#4E1F08"/>
<path d="M293.103 131.332C293.103 132.234 293.047 132.968 293.047 133.475C294.291 130.937 296.043 129.696 298.304 129.696C300.565 129.696 301.583 130.485 302.487 132.009C303.166 133.137 303.448 134.886 303.448 137.368V145.886C303.448 146.676 303.505 147.24 303.674 147.579C303.901 148.03 304.353 148.256 305.031 148.256C305.709 148.256 305.427 148.256 305.709 148.256C305.992 148.256 306.218 148.256 306.388 148.256C306.897 148.256 307.123 148.425 307.123 148.764C307.123 149.102 306.897 149.384 306.388 149.384C305.879 149.384 306.049 149.384 305.596 149.328C305.766 149.328 305.314 149.328 304.353 149.215C303.674 149.215 303.166 149.158 302.826 149.158H302.487C301.865 149.158 301.131 149.158 300.283 149.271C300 149.271 299.774 149.271 299.491 149.271C298.926 149.271 298.7 149.102 298.7 148.707C298.7 148.312 298.926 148.199 299.435 148.199H299.661C299.717 148.199 299.774 148.199 299.83 148.199H300.452C300.509 148.312 300.678 148.312 300.791 148.312C301.413 148.312 301.809 148.087 302.035 147.579C302.261 147.071 302.431 146.225 302.431 144.984V137.424C302.431 135.111 302.092 133.419 301.413 132.347C300.735 131.275 299.717 130.768 298.248 130.768C296.778 130.768 294.856 131.614 293.951 133.363C293.33 134.491 293.047 136.07 293.047 137.989V145.943C293.103 146.789 293.16 147.353 293.273 147.635C293.499 148.087 293.951 148.312 294.63 148.312C295.308 148.312 295.139 148.312 295.365 148.256C295.478 148.256 295.704 148.256 295.873 148.256C296.326 148.256 296.552 148.425 296.552 148.764C296.552 149.102 296.326 149.271 295.873 149.271C295.421 149.271 295.421 149.271 295.082 149.215C294.46 149.102 293.669 149.046 292.651 149.046H292.482C291.803 149.046 291.012 149.102 290.051 149.271C289.655 149.271 289.316 149.328 289.033 149.328C288.581 149.328 288.355 149.102 288.355 148.707C288.355 148.312 288.581 148.199 289.033 148.199C289.486 148.199 289.429 148.199 289.768 148.256C290.107 148.256 290.334 148.312 290.503 148.312C291.238 148.312 291.69 147.917 291.86 147.071C291.86 146.846 291.916 146.112 291.916 144.927V134.886C291.916 133.645 291.916 132.855 291.86 132.629C291.69 131.727 291.181 131.219 290.447 131.219C290.616 131.219 290.334 131.219 289.542 131.275C289.429 131.275 289.259 131.275 289.033 131.275C288.581 131.275 288.355 131.106 288.355 130.768C288.355 130.429 288.581 130.203 289.033 130.203H289.429C289.825 130.26 290.334 130.316 290.955 130.316C291.577 130.316 291.464 130.316 291.803 130.26C291.86 130.26 291.973 130.26 292.142 130.26H292.369C292.821 130.26 293.047 130.598 293.047 131.275C293.047 131.952 293.047 131.501 293.047 131.501L293.103 131.332Z" fill="#4E1F08"/>
<path d="M322.499 132.742V133.927C323.46 131.106 325.155 129.696 327.53 129.696C329.904 129.696 330.865 130.598 331.995 132.347C333.126 134.096 333.691 136.409 333.691 139.342C333.691 142.276 333.126 144.984 331.939 146.902C330.808 148.764 329.226 149.723 327.304 149.723C325.382 149.723 323.629 148.594 322.499 146.394V154.01C322.499 155.195 322.894 155.759 323.742 155.759H324.025C324.194 155.759 324.421 155.759 324.647 155.759H325.269C325.721 155.759 325.947 155.928 325.947 156.267C325.947 156.605 325.721 156.774 325.269 156.774C324.816 156.774 324.929 156.774 324.816 156.774C323.912 156.662 322.951 156.549 321.82 156.549C320.69 156.549 320.124 156.605 319.22 156.774C318.881 156.774 318.655 156.831 318.542 156.831C318.033 156.831 317.807 156.662 317.807 156.267C317.807 155.872 318.033 155.703 318.428 155.703C318.824 155.703 318.824 155.703 319.05 155.703C319.05 155.703 319.22 155.703 319.446 155.703H319.955C320.859 155.703 321.368 155.138 321.425 154.067V153.164V133.363C321.425 132.121 321.255 131.445 320.916 131.219C320.746 131.106 320.464 131.05 320.124 131.05C319.785 131.05 319.729 131.05 319.276 131.106C319.05 131.106 318.768 131.106 318.428 131.106C318.089 131.106 317.807 130.937 317.807 130.542C317.807 130.147 318.033 129.978 318.485 129.978C318.937 129.978 318.768 129.978 319.107 130.034C319.446 130.034 319.842 130.091 320.35 130.091C320.859 130.091 320.803 130.091 321.142 130.034C321.481 130.034 321.764 129.978 321.933 129.978C322.386 129.978 322.612 130.316 322.612 130.993V131.332C322.612 131.67 322.612 132.065 322.555 132.629L322.499 132.742ZM323.403 133.588C322.725 135.055 322.442 137.029 322.442 139.625C322.442 142.22 322.668 144.25 323.12 145.661C323.403 146.563 323.968 147.353 324.703 147.917C325.438 148.482 326.286 148.764 327.134 148.764C328.773 148.764 330.073 147.917 331.034 146.281C331.995 144.645 332.504 142.445 332.504 139.625C332.504 136.804 332.052 134.604 331.204 133.024C330.356 131.445 329.113 130.655 327.53 130.655C325.947 130.655 324.251 131.614 323.403 133.532V133.588Z" fill="#4E1F08"/>
<path d="M338.101 139.286V139.907C338.101 142.671 338.609 144.815 339.57 146.338C340.588 147.917 341.945 148.707 343.697 148.707C345.449 148.707 345.789 148.369 346.637 147.635C347.484 146.902 348.05 145.943 348.389 144.702C348.502 144.25 348.615 143.573 348.728 142.784C348.728 142.276 348.954 142.05 349.293 142.05C349.633 142.05 349.859 142.276 349.859 142.784C349.859 144.589 349.237 146.225 347.993 147.579C346.75 148.933 345.28 149.61 343.64 149.61C342.001 149.61 339.966 148.707 338.722 146.958C337.479 145.209 336.857 142.897 336.857 140.019C336.857 137.142 337.479 134.434 338.779 132.516C340.079 130.598 341.718 129.639 343.754 129.639C345.789 129.639 347.089 130.429 348.219 131.952C349.406 133.475 349.972 135.45 349.972 137.876C349.972 140.301 349.972 138.948 349.802 139.06C349.689 139.173 349.406 139.286 348.954 139.286H338.044H338.101ZM343.754 130.655C342.171 130.655 340.871 131.332 339.91 132.742C338.892 134.152 338.327 135.958 338.214 138.271H348.445C348.728 138.271 348.898 138.101 348.898 137.819C348.898 135.676 348.445 133.927 347.484 132.629C346.523 131.332 345.336 130.655 343.81 130.655H343.754Z" fill="#4E1F08"/>
<path d="M363.652 146.338V145.435C362.973 146.958 362.182 148.03 361.391 148.707C360.543 149.384 359.469 149.666 358.112 149.666C356.755 149.666 355.399 149.215 354.494 148.256C353.59 147.297 353.137 146.056 353.137 144.476C353.137 141.091 354.89 139.23 358.451 138.891C360.543 138.665 361.843 138.327 362.465 137.876C363.086 137.424 363.369 136.465 363.369 135.055C363.369 133.645 363.03 132.629 362.295 131.896C361.56 131.162 360.543 130.768 359.242 130.768C357.942 130.768 357.207 131.106 356.416 131.727C355.625 132.404 355.229 133.137 355.229 133.983C355.229 134.829 355.229 134.322 355.399 134.322C355.738 134.152 355.964 134.096 356.133 134.096C356.868 134.096 357.264 134.547 357.264 135.393C357.264 136.24 357.094 136.183 356.812 136.465C356.529 136.747 356.19 136.917 355.738 136.917C355.285 136.917 354.833 136.691 354.494 136.24C354.155 135.788 353.985 135.224 353.985 134.547C353.985 133.193 354.494 132.065 355.512 131.106C356.529 130.203 357.773 129.696 359.242 129.696C361.447 129.696 362.973 130.485 363.878 132.065C364.443 133.024 364.669 134.829 364.669 137.368V145.886C364.669 147.805 365.122 148.764 366.026 148.764C366.93 148.764 367.496 147.635 367.496 145.322V144.758C367.496 144.476 367.496 144.194 367.496 143.968C367.496 143.291 367.722 143.009 368.118 143.009C368.513 143.009 368.739 143.348 368.739 143.968C368.739 146.225 368.57 147.748 368.231 148.538C367.891 149.328 367.157 149.723 366.139 149.723C364.556 149.723 363.708 148.594 363.708 146.394L363.652 146.338ZM363.652 140.414V138.045C362.917 138.891 361.786 139.455 360.317 139.568L358.621 139.794C355.738 140.132 354.324 141.599 354.324 144.307C354.324 147.015 354.664 146.676 355.399 147.466C356.133 148.256 357.094 148.707 358.281 148.707C360.486 148.707 362.012 147.635 362.86 145.492C363.369 144.194 363.652 142.502 363.652 140.414Z" fill="#4E1F08"/>
<path d="M377.445 148.707C378.689 148.707 379.763 148.312 380.611 147.466C381.458 146.62 381.967 145.548 382.08 144.138V143.291C382.193 142.953 382.363 142.784 382.702 142.784C383.041 142.784 383.267 143.009 383.267 143.517C383.267 145.21 382.702 146.62 381.572 147.861C380.441 149.046 379.028 149.666 377.445 149.666C375.862 149.666 373.657 148.764 372.357 146.958C371.057 145.153 370.379 142.784 370.379 139.907C370.379 137.029 371.057 134.491 372.357 132.573C373.657 130.655 375.41 129.696 377.501 129.696C379.593 129.696 380.384 130.26 381.458 131.388C382.532 132.516 383.098 133.87 383.098 135.563C383.098 137.255 382.476 138.496 381.232 138.496C379.989 138.496 379.819 137.989 379.819 137.029C379.819 136.07 380.102 135.788 380.724 135.788C381.345 135.788 381.176 135.901 381.458 136.127C381.458 136.183 381.572 136.24 381.685 136.24C381.854 136.24 381.967 136.014 381.967 135.563C381.967 134.096 381.572 132.968 380.724 132.065C379.876 131.162 378.858 130.711 377.558 130.711C375.749 130.711 374.279 131.557 373.205 133.306C372.131 135.055 371.622 137.368 371.622 140.245C371.622 143.122 372.131 144.871 373.262 146.451C374.336 147.974 375.749 148.764 377.501 148.764L377.445 148.707Z" fill="#4E1F08"/>
<path d="M387.79 139.286V139.907C387.79 142.671 388.298 144.815 389.259 146.338C390.277 147.917 391.634 148.707 393.386 148.707C395.138 148.707 395.478 148.369 396.326 147.635C397.174 146.902 397.739 145.943 398.078 144.702C398.191 144.25 398.304 143.573 398.417 142.784C398.417 142.276 398.643 142.05 398.982 142.05C399.322 142.05 399.548 142.276 399.548 142.784C399.548 144.589 398.926 146.225 397.682 147.579C396.439 148.933 394.969 149.61 393.33 149.61C391.69 149.61 389.655 148.707 388.412 146.958C387.168 145.209 386.546 142.897 386.546 140.019C386.546 137.142 387.168 134.434 388.468 132.516C389.768 130.598 391.408 129.639 393.443 129.639C395.478 129.639 396.778 130.429 397.908 131.952C399.096 133.475 399.661 135.45 399.661 137.876C399.661 140.301 399.661 138.948 399.491 139.06C399.378 139.173 399.096 139.286 398.643 139.286H387.733H387.79ZM393.443 130.655C391.86 130.655 390.56 131.332 389.599 132.742C388.581 134.152 388.016 135.958 387.903 138.271H398.135C398.417 138.271 398.587 138.101 398.587 137.819C398.587 135.676 398.135 133.927 397.174 132.629C396.213 131.332 395.025 130.655 393.499 130.655H393.443Z" fill="#4E1F08"/>
</g>
<defs>
<clipPath id="clip0_51_36">
<rect width="400" height="157" fill="white"/>
</clipPath>
</defs>
</svg>
