<svg width="100" height="25" viewBox="0 0 100 25" fill="none" xmlns="http://www.w3.org/2000/svg">
<path d="M1.288 16.768H1.518C1.90133 16.9673 2.36133 17.159 2.898 17.343C3.43467 17.527 4.01733 17.6803 4.646 17.803C5.29 17.9103 5.934 17.964 6.578 17.964C7.25267 17.964 7.81233 17.918 8.257 17.826C8.717 17.734 9.062 17.5883 9.292 17.389C9.53733 17.1743 9.66 16.8907 9.66 16.538C9.66 16.0933 9.50667 15.7637 9.2 15.549C8.90867 15.3343 8.37967 15.1657 7.613 15.043L6.095 14.813C4.96033 14.6443 3.99433 14.353 3.197 13.939C2.415 13.525 1.82467 12.9807 1.426 12.306C1.02733 11.616 0.828 10.788 0.828 9.822C0.828 8.64133 1.104 7.62933 1.656 6.786C2.22333 5.94267 3.082 5.29867 4.232 4.854C5.382 4.394 6.854 4.164 8.648 4.164C9.44533 4.164 10.212 4.233 10.948 4.371C11.684 4.49367 12.2973 4.66233 12.788 4.877V8.35H12.535C12.075 8.13533 11.4847 7.936 10.764 7.752C10.0433 7.568 9.23833 7.476 8.349 7.476C7.58233 7.476 6.93067 7.55267 6.394 7.706C5.87267 7.85933 5.474 8.097 5.198 8.419C4.922 8.72567 4.784 9.11667 4.784 9.592C4.784 10.2053 4.98333 10.6423 5.382 10.903C5.78067 11.1637 6.42467 11.3707 7.314 11.524L8.763 11.754C9.66767 11.892 10.488 12.1373 11.224 12.49C11.9753 12.8427 12.5657 13.3333 12.995 13.962C13.4397 14.5907 13.662 15.4187 13.662 16.446C13.662 17.32 13.478 18.0713 13.11 18.7C12.742 19.3133 12.2283 19.8117 11.569 20.195C10.925 20.563 10.1737 20.8313 9.315 21C8.47167 21.184 7.55933 21.276 6.578 21.276C5.888 21.276 5.20567 21.23 4.531 21.138C3.87167 21.0613 3.25833 20.954 2.691 20.816C2.12367 20.678 1.656 20.5323 1.288 20.379V16.768ZM15.3816 21L17.2216 10.144C17.4209 8.948 17.7429 7.96667 18.1876 7.2C18.6323 6.43333 19.1843 5.83533 19.8436 5.406C20.5183 4.97667 21.3079 4.67767 22.2126 4.509C23.1173 4.34033 24.1293 4.256 25.2486 4.256C25.8926 4.256 26.5903 4.29433 27.3416 4.371C28.0929 4.44767 28.7753 4.555 29.3886 4.693L29.4346 4.969C29.3733 5.245 29.3273 5.613 29.2966 6.073C29.2813 6.533 29.2659 7.00067 29.2506 7.476C29.2506 7.95133 29.2506 8.34233 29.2506 8.649V21H25.1796V9.063C25.1796 8.61833 25.1949 8.212 25.2256 7.844C25.2716 7.46067 25.3253 7.11567 25.3866 6.809L25.9156 7.798C25.7469 7.752 25.5169 7.72133 25.2256 7.706C24.9496 7.67533 24.6889 7.66 24.4436 7.66C23.7229 7.66 23.1479 7.75967 22.7186 7.959C22.2893 8.143 21.9596 8.42667 21.7296 8.81C21.5149 9.19333 21.3539 9.684 21.2466 10.282L19.4756 21H15.3816ZM18.3256 16.768V13.502H27.0656V16.768H18.3256ZM32.7666 21V4.44H36.2166L41.9436 13.847L40.2646 13.87L45.8996 4.44H49.3496V21H45.2786V10.305L46.1066 10.535L42.0356 17.297H40.0806L36.0096 10.627L36.8606 10.397V21H32.7666Z" fill="#0855B1"/>
<path d="M52.8466 21V4.44H56.9406V21H52.8466ZM55.0546 15.595V12.237H62.6216V15.595H55.0546ZM55.0546 7.982V4.44H63.7716V7.982H55.0546ZM66.2558 21V4.44H69.7058L75.4328 13.847L73.7538 13.87L79.3888 4.44H82.8388V21H78.7678V10.305L79.5958 10.535L75.5248 17.297H73.5698L69.4988 10.627L70.3498 10.397V21H66.2558ZM85.8759 16.768H86.1059C86.4892 16.9673 86.9492 17.159 87.4859 17.343C88.0226 17.527 88.6052 17.6803 89.2339 17.803C89.8779 17.9103 90.5219 17.964 91.1659 17.964C91.8406 17.964 92.4002 17.918 92.8449 17.826C93.3049 17.734 93.6499 17.5883 93.8799 17.389C94.1252 17.1743 94.2479 16.8907 94.2479 16.538C94.2479 16.0933 94.0946 15.7637 93.7879 15.549C93.4966 15.3343 92.9676 15.1657 92.2009 15.043L90.6829 14.813C89.5482 14.6443 88.5822 14.353 87.7849 13.939C87.0029 13.525 86.4126 12.9807 86.0139 12.306C85.6152 11.616 85.4159 10.788 85.4159 9.822C85.4159 8.64133 85.6919 7.62933 86.2439 6.786C86.8112 5.94267 87.6699 5.29867 88.8199 4.854C89.9699 4.394 91.4419 4.164 93.2359 4.164C94.0332 4.164 94.7999 4.233 95.5359 4.371C96.2719 4.49367 96.8852 4.66233 97.3759 4.877V8.35H97.1229C96.6629 8.13533 96.0726 7.936 95.3519 7.752C94.6312 7.568 93.8262 7.476 92.9369 7.476C92.1702 7.476 91.5186 7.55267 90.9819 7.706C90.4606 7.85933 90.0619 8.097 89.7859 8.419C89.5099 8.72567 89.3719 9.11667 89.3719 9.592C89.3719 10.2053 89.5712 10.6423 89.9699 10.903C90.3686 11.1637 91.0126 11.3707 91.9019 11.524L93.3509 11.754C94.2556 11.892 95.0759 12.1373 95.8119 12.49C96.5632 12.8427 97.1536 13.3333 97.5829 13.962C98.0276 14.5907 98.2499 15.4187 98.2499 16.446C98.2499 17.32 98.0659 18.0713 97.6979 18.7C97.3299 19.3133 96.8162 19.8117 96.1569 20.195C95.5129 20.563 94.7616 20.8313 93.9029 21C93.0596 21.184 92.1472 21.276 91.1659 21.276C90.4759 21.276 89.7936 21.23 89.1189 21.138C88.4596 21.0613 87.8462 20.954 87.2789 20.816C86.7116 20.678 86.2439 20.5323 85.8759 20.379V16.768Z" fill="white"/>
</svg>
