<svg width="100" height="100" viewBox="0 0 100 100" fill="none" xmlns="http://www.w3.org/2000/svg">
<g clip-path="url(#clip0_1_249)">
<line y1="-0.5" x2="70.4517" y2="-0.5" transform="matrix(0.0993588 -0.995052 0.994416 0.105532 86 92.7835)" stroke="#4FA5D8"/>
<line y1="-0.5" x2="65.2316" y2="-0.5" transform="matrix(0.52122 -0.853422 0.838787 0.544459 64 74.2268)" stroke="#4FA5D8"/>
<line y1="-0.5" x2="28.7811" y2="-0.5" transform="matrix(-0.764391 -0.644753 0.621651 -0.783294 86 92.7835)" stroke="#4FA5D8"/>
<line y1="-0.5" x2="69.656" y2="-0.5" transform="matrix(0.129206 0.991618 -0.990547 0.137174 53 3.09277)" stroke="#4FA5D8"/>
<line y1="-0.5" x2="69.656" y2="-0.5" transform="matrix(0.129206 0.991618 -0.990547 0.137174 53 3.09277)" stroke="#4FA5D8"/>
<line y1="-0.5" x2="79.6753" y2="-0.5" transform="matrix(0.715403 0.698712 -0.676637 0.736317 7 18.5567)" stroke="#4FA5D8"/>
<line y1="-0.5" x2="78.6487" y2="-0.5" transform="matrix(0.330584 0.943777 -0.937165 0.348887 7 18.5567)" stroke="#4FA5D8"/>
<line y1="-0.5" x2="92.1164" y2="-0.5" transform="matrix(0.227973 -0.973668 0.970406 0.24148 32 92.7835)" stroke="#4FA5D8"/>
<line y1="-0.5" x2="27.2828" y2="-0.5" transform="matrix(0.733063 -0.680161 0.657651 0.753323 33 21.6495)" stroke="#4FA5D8"/>
<line y1="-0.5" x2="65.0327" y2="-0.5" transform="matrix(0.999497 -0.0317049 0.0298329 0.999555 33 21.6495)" stroke="#4FA5D8"/>
<line y1="-0.5" x2="26.1833" y2="-0.5" transform="matrix(-0.992999 -0.11812 0.111229 -0.993795 33 21.6495)" stroke="#4FA5D8"/>
<line y1="-0.5" x2="105.274" y2="-0.5" transform="matrix(0.902408 -0.430884 0.409806 0.912173 3 64.9485)" stroke="#4FA5D8"/>
<line y1="-0.5" x2="52.1133" y2="-0.5" transform="matrix(-0.556479 0.830862 -0.814678 -0.579913 33 21.6495)" stroke="#4FA5D8"/>
<line y1="-0.5" x2="40.1969" y2="-0.5" transform="matrix(-0.721449 -0.692468 0.670236 -0.742148 33 92.7835)" stroke="#4FA5D8"/>
<line y1="-0.5" x2="36.9912" y2="-0.5" transform="matrix(0.86507 -0.501651 0.478967 0.877833 32 92.7835)" stroke="#4FA5D8"/>
<line x1="32" y1="92.2835" x2="86" y2="92.2835" stroke="#4FA5D8"/>
<ellipse cx="53.5" cy="5.6701" rx="5.5" ry="5.6701" fill="#010E54"/>
<ellipse cx="10" cy="20.6186" rx="7" ry="7.2165" fill="#010E54"/>
<ellipse cx="85.5" cy="92.268" rx="7.5" ry="7.73196" fill="#010E54"/>
<ellipse cx="31.5" cy="90.2062" rx="5.5" ry="5.6701" fill="#010E54"/>
<ellipse cx="92.5" cy="22.1649" rx="7.5" ry="7.73196" fill="#010E54"/>
<ellipse cx="3.5" cy="64.433" rx="3.5" ry="3.60825" fill="#010E54"/>
<ellipse cx="32.5" cy="22.165" rx="4.5" ry="4.63918" fill="#010E54"/>
<ellipse cx="62" cy="72.1649" rx="6" ry="6.18557" fill="#010E54"/>
</g>
<defs>
<clipPath id="clip0_1_249">
<rect width="100" height="100" fill="white"/>
</clipPath>
</defs>
</svg>
