<svg width="100" height="100" viewBox="0 0 100 100" fill="none" xmlns="http://www.w3.org/2000/svg">
<line x1="85.5026" y1="91.9488" x2="92.5026" y2="23.9488" stroke="#4FA5D8"/>
<line x1="63.5769" y1="73.7336" x2="97.5769" y2="19.7336" stroke="#4FA5D8"/>
<line x1="85.6834" y1="92.387" x2="63.6834" y2="74.387" stroke="#4FA5D8"/>
<line x1="53.4955" y1="4.93343" x2="62.4955" y2="71.9334" stroke="#4FA5D8"/>
<line x1="53.4955" y1="4.93343" x2="62.4955" y2="71.9334" stroke="#4FA5D8"/>
<line x1="7.34387" y1="19.637" x2="64.3439" y2="73.637" stroke="#4FA5D8"/>
<line x1="7.47028" y1="19.8302" x2="33.4703" y2="91.8302" stroke="#4FA5D8"/>
<line x1="31.514" y1="91.8827" x2="52.514" y2="4.88267" stroke="#4FA5D8"/>
<line x1="32.6655" y1="22.6284" x2="52.6655" y2="4.62835" stroke="#4FA5D8"/>
<line x1="32.9846" y1="22.5002" x2="97.9846" y2="20.5002" stroke="#4FA5D8"/>
<line x1="32.9427" y1="23.4967" x2="6.94269" y2="20.4967" stroke="#4FA5D8"/>
<line x1="2.78987" y1="64.5463" x2="97.7899" y2="20.5463" stroke="#4FA5D8"/>
<line x1="33.4114" y1="23.2841" x2="4.41145" y2="65.2841" stroke="#4FA5D8"/>
<line x1="32.6593" y1="92.3659" x2="3.65929" y2="65.3659" stroke="#4FA5D8"/>
<line x1="31.7549" y1="91.5642" x2="63.7549" y2="73.5642" stroke="#4FA5D8"/>
<line x1="32" y1="91.5" x2="86" y2="91.5" stroke="#4FA5D8"/>
<circle cx="53.5" cy="7.5" r="5.5" fill="#010E54"/>
<circle cx="10" cy="22" r="7" fill="#010E54"/>
<circle cx="85.5" cy="91.5" r="7.5" fill="#010E54"/>
<circle cx="31.5" cy="89.5" r="5.5" fill="#010E54"/>
<circle cx="92.5" cy="23.5" r="7.5" fill="#010E54"/>
<circle cx="3.5" cy="64.5" r="3.5" fill="#010E54"/>
<circle cx="32.5" cy="23.5" r="4.5" fill="#010E54"/>
<circle cx="62" cy="72" r="6" fill="#010E54"/>
<path d="M1.288 51.768H1.518C1.90133 51.9673 2.36133 52.159 2.898 52.343C3.43467 52.527 4.01733 52.6803 4.646 52.803C5.29 52.9103 5.934 52.964 6.578 52.964C7.25267 52.964 7.81233 52.918 8.257 52.826C8.717 52.734 9.062 52.5883 9.292 52.389C9.53733 52.1743 9.66 51.8907 9.66 51.538C9.66 51.0933 9.50667 50.7637 9.2 50.549C8.90867 50.3343 8.37967 50.1657 7.613 50.043L6.095 49.813C4.96033 49.6443 3.99433 49.353 3.197 48.939C2.415 48.525 1.82467 47.9807 1.426 47.306C1.02733 46.616 0.828 45.788 0.828 44.822C0.828 43.6413 1.104 42.6293 1.656 41.786C2.22333 40.9427 3.082 40.2987 4.232 39.854C5.382 39.394 6.854 39.164 8.648 39.164C9.44533 39.164 10.212 39.233 10.948 39.371C11.684 39.4937 12.2973 39.6623 12.788 39.877V43.35H12.535C12.075 43.1353 11.4847 42.936 10.764 42.752C10.0433 42.568 9.23833 42.476 8.349 42.476C7.58233 42.476 6.93067 42.5527 6.394 42.706C5.87267 42.8593 5.474 43.097 5.198 43.419C4.922 43.7257 4.784 44.1167 4.784 44.592C4.784 45.2053 4.98333 45.6423 5.382 45.903C5.78067 46.1637 6.42467 46.3707 7.314 46.524L8.763 46.754C9.66767 46.892 10.488 47.1373 11.224 47.49C11.9753 47.8427 12.5657 48.3333 12.995 48.962C13.4397 49.5907 13.662 50.4187 13.662 51.446C13.662 52.32 13.478 53.0713 13.11 53.7C12.742 54.3133 12.2283 54.8117 11.569 55.195C10.925 55.563 10.1737 55.8313 9.315 56C8.47167 56.184 7.55933 56.276 6.578 56.276C5.888 56.276 5.20567 56.23 4.531 56.138C3.87167 56.0613 3.25833 55.954 2.691 55.816C2.12367 55.678 1.656 55.5323 1.288 55.379V51.768ZM15.3816 56L17.2216 45.144C17.4209 43.948 17.7429 42.9667 18.1876 42.2C18.6323 41.4333 19.1843 40.8353 19.8436 40.406C20.5183 39.9767 21.3079 39.6777 22.2126 39.509C23.1173 39.3403 24.1293 39.256 25.2486 39.256C25.8926 39.256 26.5903 39.2943 27.3416 39.371C28.0929 39.4477 28.7753 39.555 29.3886 39.693L29.4346 39.969C29.3733 40.245 29.3273 40.613 29.2966 41.073C29.2813 41.533 29.2659 42.0007 29.2506 42.476C29.2506 42.9513 29.2506 43.3423 29.2506 43.649V56H25.1796V44.063C25.1796 43.6183 25.1949 43.212 25.2256 42.844C25.2716 42.4607 25.3253 42.1157 25.3866 41.809L25.9156 42.798C25.7469 42.752 25.5169 42.7213 25.2256 42.706C24.9496 42.6753 24.6889 42.66 24.4436 42.66C23.7229 42.66 23.1479 42.7597 22.7186 42.959C22.2893 43.143 21.9596 43.4267 21.7296 43.81C21.5149 44.1933 21.3539 44.684 21.2466 45.282L19.4756 56H15.3816ZM18.3256 51.768V48.502H27.0656V51.768H18.3256ZM32.7666 56V39.44H36.2166L41.9436 48.847L40.2646 48.87L45.8996 39.44H49.3496V56H45.2786V45.305L46.1066 45.535L42.0356 52.297H40.0806L36.0096 45.627L36.8606 45.397V56H32.7666Z" fill="#00022B"/>
<path d="M52.8466 56V39.44H56.9406V56H52.8466ZM55.0546 50.595V47.237H62.6216V50.595H55.0546ZM55.0546 42.982V39.44H63.7716V42.982H55.0546ZM66.2558 56V39.44H69.7058L75.4328 48.847L73.7538 48.87L79.3888 39.44H82.8388V56H78.7678V45.305L79.5958 45.535L75.5248 52.297H73.5698L69.4988 45.627L70.3498 45.397V56H66.2558ZM85.8759 51.768H86.1059C86.4892 51.9673 86.9492 52.159 87.4859 52.343C88.0226 52.527 88.6052 52.6803 89.2339 52.803C89.8779 52.9103 90.5219 52.964 91.1659 52.964C91.8406 52.964 92.4002 52.918 92.8449 52.826C93.3049 52.734 93.6499 52.5883 93.8799 52.389C94.1252 52.1743 94.2479 51.8907 94.2479 51.538C94.2479 51.0933 94.0946 50.7637 93.7879 50.549C93.4966 50.3343 92.9676 50.1657 92.2009 50.043L90.6829 49.813C89.5482 49.6443 88.5822 49.353 87.7849 48.939C87.0029 48.525 86.4126 47.9807 86.0139 47.306C85.6152 46.616 85.4159 45.788 85.4159 44.822C85.4159 43.6413 85.6919 42.6293 86.2439 41.786C86.8112 40.9427 87.6699 40.2987 88.8199 39.854C89.9699 39.394 91.4419 39.164 93.2359 39.164C94.0332 39.164 94.7999 39.233 95.5359 39.371C96.2719 39.4937 96.8852 39.6623 97.3759 39.877V43.35H97.1229C96.6629 43.1353 96.0726 42.936 95.3519 42.752C94.6312 42.568 93.8262 42.476 92.9369 42.476C92.1702 42.476 91.5186 42.5527 90.9819 42.706C90.4606 42.8593 90.0619 43.097 89.7859 43.419C89.5099 43.7257 89.3719 44.1167 89.3719 44.592C89.3719 45.2053 89.5712 45.6423 89.9699 45.903C90.3686 46.1637 91.0126 46.3707 91.9019 46.524L93.3509 46.754C94.2556 46.892 95.0759 47.1373 95.8119 47.49C96.5632 47.8427 97.1536 48.3333 97.5829 48.962C98.0276 49.5907 98.2499 50.4187 98.2499 51.446C98.2499 52.32 98.0659 53.0713 97.6979 53.7C97.3299 54.3133 96.8162 54.8117 96.1569 55.195C95.5129 55.563 94.7616 55.8313 93.9029 56C93.0596 56.184 92.1472 56.276 91.1659 56.276C90.4759 56.276 89.7936 56.23 89.1189 56.138C88.4596 56.0613 87.8462 55.954 87.2789 55.816C86.7116 55.678 86.2439 55.5323 85.8759 55.379V51.768Z" fill="#0855B1"/>
</svg>
