<svg xmlns="http://www.w3.org/2000/svg" xmlns:xlink="http://www.w3.org/1999/xlink" width="1920" zoomAndPan="magnify" viewBox="0 0 1440 300" height="700" preserveAspectRatio="xMidYMid meet" version="1.0"><defs><filter x="0%" y="0%" width="100%" height="100%" id="a24a740bbd"><feColorMatrix values="0 0 0 0 1 0 0 0 0 1 0 0 0 0 1 0 0 0 1 0" color-interpolation-filters="sRGB"/></filter><mask id="2fd3ae51b9"><g filter="url(#a24a740bbd)"><rect x="-144" width="1728" fill="#000000" y="-30" height="360" fill-opacity="0.6"/></g></mask><clipPath id="fdb3b29232"><path d="M 0.238281 0.679688 L 1309.921875 0.679688 L 1309.921875 117.800781 L 0.238281 117.800781 Z M 0.238281 0.679688 " clip-rule="nonzero"/></clipPath><clipPath id="de6b747b1e"><path d="M 0.238281 0.679688 L 735 0.679688 L 735 16 L 0.238281 16 Z M 0.238281 0.679688 " clip-rule="nonzero"/></clipPath><clipPath id="b8b33e110a"><path d="M 0.238281 26 L 323 26 L 323 42 L 0.238281 42 Z M 0.238281 26 " clip-rule="nonzero"/></clipPath><clipPath id="628122c76c"><path d="M 0.238281 103 L 549 103 L 549 117.800781 L 0.238281 117.800781 Z M 0.238281 103 " clip-rule="nonzero"/></clipPath><clipPath id="cdf71b55ac"><path d="M 0.238281 77 L 323 77 L 323 93 L 0.238281 93 Z M 0.238281 77 " clip-rule="nonzero"/></clipPath><clipPath id="2a361b51ff"><path d="M 753 0.679688 L 1076 0.679688 L 1076 16 L 753 16 Z M 753 0.679688 " clip-rule="nonzero"/></clipPath><clipPath id="aa96f9b608"><path d="M 566 103 L 960 103 L 960 117.800781 L 566 117.800781 Z M 566 103 " clip-rule="nonzero"/></clipPath><clipPath id="8abf65496f"><path d="M 0.238281 52 L 630 52 L 630 67 L 0.238281 67 Z M 0.238281 52 " clip-rule="nonzero"/></clipPath><clipPath id="26aad8a651"><rect x="0" width="1310" y="0" height="118"/></clipPath><clipPath id="fc0d864956"><rect x="0" width="1310" y="0" height="118"/></clipPath><mask id="817e55332d"><g filter="url(#a24a740bbd)"><rect x="-144" width="1728" fill="#000000" y="-30" height="360" fill-opacity="0.6"/></g></mask><clipPath id="74fee4da1a"><path d="M 0.238281 0.078125 L 1309.921875 0.078125 L 1309.921875 32 L 0.238281 32 Z M 0.238281 0.078125 " clip-rule="nonzero"/></clipPath><clipPath id="eea360cf27"><path d="M 0.238281 0.078125 L 735 0.078125 L 735 15 L 0.238281 15 Z M 0.238281 0.078125 " clip-rule="nonzero"/></clipPath><clipPath id="af6f4cde0d"><path d="M 0.238281 25 L 323 25 L 323 32 L 0.238281 32 Z M 0.238281 25 " clip-rule="nonzero"/></clipPath><clipPath id="a25787c8b5"><path d="M 753 0.078125 L 1076 0.078125 L 1076 15 L 753 15 Z M 753 0.078125 " clip-rule="nonzero"/></clipPath><clipPath id="9c9fafa96f"><path d="M 341 25 L 735 25 L 735 32 L 341 32 Z M 341 25 " clip-rule="nonzero"/></clipPath><clipPath id="1d93dc7eba"><path d="M 753 25 L 1022 25 L 1022 32 L 753 32 Z M 753 25 " clip-rule="nonzero"/></clipPath><clipPath id="4406813337"><path d="M 1039 25 L 1308 25 L 1308 32 L 1039 32 Z M 1039 25 " clip-rule="nonzero"/></clipPath><clipPath id="b8fbd77d02"><rect x="0" width="1310" y="0" height="32"/></clipPath><clipPath id="3eff515472"><rect x="0" width="1310" y="0" height="32"/></clipPath></defs><g mask="url(#2fd3ae51b9)"><g transform="matrix(1, 0, 0, 1, 66, 139)"><g clip-path="url(#fc0d864956)"><g clip-path="url(#fdb3b29232)"><g transform="matrix(1, 0, 0, 1, 0, 0.000000000000113687)"><g clip-path="url(#26aad8a651)"><g clip-path="url(#de6b747b1e)"><path stroke-linecap="round" transform="matrix(2.434659, 0, 0, 2.434659, 0.357002, 0.789731)" fill="none" stroke-linejoin="miter" d="M 2.999662 3.000017 L 298.733717 3.000017 " stroke="#6c7863" stroke-width="6" stroke-opacity="1" stroke-miterlimit="4"/></g><g clip-path="url(#b8b33e110a)"><path stroke-linecap="round" transform="matrix(2.434659, 0, 0, 2.434659, 0.357002, 26.502674)" fill="none" stroke-linejoin="miter" d="M 2.999662 3.000797 L 129.499642 3.000797 " stroke="#6c7863" stroke-width="6" stroke-opacity="1" stroke-miterlimit="4"/></g><g clip-path="url(#628122c76c)"><path stroke-linecap="round" transform="matrix(2.434659, 0, 0, 2.434659, 0.357002, 103.148027)" fill="none" stroke-linejoin="miter" d="M 2.999662 3.00046 L 221.942305 3.00046 " stroke="#6c7863" stroke-width="6" stroke-opacity="1" stroke-miterlimit="4"/></g><g clip-path="url(#cdf71b55ac)"><path stroke-linecap="round" transform="matrix(2.434659, 0, 0, 2.434659, 0.357002, 77.599586)" fill="none" stroke-linejoin="miter" d="M 2.999662 2.999499 L 129.499642 2.999499 " stroke="#6c7863" stroke-width="6" stroke-opacity="1" stroke-miterlimit="4"/></g><g clip-path="url(#2a361b51ff)"><path stroke-linecap="round" transform="matrix(2.434659, 0, 0, 2.434659, 753.298862, 0.789731)" fill="none" stroke-linejoin="miter" d="M 2.999475 3.000017 L 129.499455 3.000017 " stroke="#6c7863" stroke-width="6" stroke-opacity="1" stroke-miterlimit="4"/></g><path stroke-linecap="round" transform="matrix(2.434659, 0, 0, 2.434659, 341.568763, 26.502674)" fill="none" stroke-linejoin="miter" d="M 2.999323 3.000797 L 158.586084 3.000797 " stroke="#6c7863" stroke-width="6" stroke-opacity="1" stroke-miterlimit="4"/><path stroke-linecap="round" transform="matrix(2.434659, 0, 0, 2.434659, 753.298862, 77.599586)" fill="none" stroke-linejoin="miter" d="M 2.999475 2.999499 L 158.586236 2.999499 " stroke="#6c7863" stroke-width="6" stroke-opacity="1" stroke-miterlimit="4"/><path stroke-linecap="round" transform="matrix(2.434659, 0, 0, 2.434659, 341.568763, 77.599586)" fill="none" stroke-linejoin="miter" d="M 2.999323 2.999499 L 158.586084 2.999499 " stroke="#6c7863" stroke-width="6" stroke-opacity="1" stroke-miterlimit="4"/><path stroke-linecap="round" transform="matrix(2.434659, 0, 0, 2.434659, 649.273962, 52.051131)" fill="none" stroke-linejoin="miter" d="M 3.000076 3.000147 L 158.586837 3.000147 " stroke="#6c7863" stroke-width="6" stroke-opacity="1" stroke-miterlimit="4"/><g clip-path="url(#aa96f9b608)"><path stroke-linecap="round" transform="matrix(2.434659, 0, 0, 2.434659, 566.295094, 103.148027)" fill="none" stroke-linejoin="miter" d="M 2.999418 3.00046 L 158.586179 3.00046 " stroke="#6c7863" stroke-width="6" stroke-opacity="1" stroke-miterlimit="4"/></g><path stroke-linecap="round" transform="matrix(2.434659, 0, 0, 2.434659, 753.298862, 26.502674)" fill="none" stroke-linejoin="miter" d="M 2.999475 3.000797 L 107.080701 3.000797 " stroke="#6c7863" stroke-width="6" stroke-opacity="1" stroke-miterlimit="4"/><path stroke-linecap="round" transform="matrix(2.434659, 0, 0, 2.434659, 1039.632026, 26.502674)" fill="none" stroke-linejoin="miter" d="M 3.000614 3.000797 L 107.081841 3.000797 " stroke="#6c7863" stroke-width="6" stroke-opacity="1" stroke-miterlimit="4"/><g clip-path="url(#8abf65496f)"><path stroke-linecap="round" transform="matrix(2.434659, 0, 0, 2.434659, 0.357002, 52.051131)" fill="none" stroke-linejoin="miter" d="M 2.999662 3.000147 L 255.580865 3.000147 " stroke="#6c7863" stroke-width="6" stroke-opacity="1" stroke-miterlimit="4"/></g></g></g></g></g></g></g><g mask="url(#817e55332d)"><g transform="matrix(1, 0, 0, 1, 66, 268)"><g clip-path="url(#3eff515472)"><g clip-path="url(#74fee4da1a)"><g transform="matrix(1, 0, 0, 1, 0, 0.000000000000113687)"><g clip-path="url(#b8fbd77d02)"><g clip-path="url(#eea360cf27)"><path stroke-linecap="round" transform="matrix(2.434659, 0, 0, 2.434659, 0.357002, 0.244013)" fill="none" stroke-linejoin="miter" d="M 2.999662 2.999542 L 298.733717 2.999542 " stroke="#6c7863" stroke-width="6" stroke-opacity="1" stroke-miterlimit="4"/></g><g clip-path="url(#af6f4cde0d)"><path stroke-linecap="round" transform="matrix(2.434659, 0, 0, 2.434659, 0.357002, 25.956941)" fill="none" stroke-linejoin="miter" d="M 2.999662 3.000328 L 129.499642 3.000328 " stroke="#6c7863" stroke-width="6" stroke-opacity="1" stroke-miterlimit="4"/></g><g clip-path="url(#a25787c8b5)"><path stroke-linecap="round" transform="matrix(2.434659, 0, 0, 2.434659, 753.298862, 0.244013)" fill="none" stroke-linejoin="miter" d="M 2.999475 2.999542 L 129.499455 2.999542 " stroke="#6c7863" stroke-width="6" stroke-opacity="1" stroke-miterlimit="4"/></g><g clip-path="url(#9c9fafa96f)"><path stroke-linecap="round" transform="matrix(2.434659, 0, 0, 2.434659, 341.568763, 25.956941)" fill="none" stroke-linejoin="miter" d="M 2.999323 3.000328 L 158.586084 3.000328 " stroke="#6c7863" stroke-width="6" stroke-opacity="1" stroke-miterlimit="4"/></g><g clip-path="url(#1d93dc7eba)"><path stroke-linecap="round" transform="matrix(2.434659, 0, 0, 2.434659, 753.298862, 25.956941)" fill="none" stroke-linejoin="miter" d="M 2.999475 3.000328 L 107.080701 3.000328 " stroke="#6c7863" stroke-width="6" stroke-opacity="1" stroke-miterlimit="4"/></g><g clip-path="url(#4406813337)"><path stroke-linecap="round" transform="matrix(2.434659, 0, 0, 2.434659, 1039.632026, 25.956941)" fill="none" stroke-linejoin="miter" d="M 3.000614 3.000328 L 107.081841 3.000328 " stroke="#6c7863" stroke-width="6" stroke-opacity="1" stroke-miterlimit="4"/></g></g></g></g></g></g></g></svg>