<?xml version="1.0" encoding="UTF-8"?>
<svg id="Layer_2" data-name="Layer 2" xmlns="http://www.w3.org/2000/svg" viewBox="0 0 1080 1080">
  <defs>
    <style>
      .cls-1 {
        fill: #fff;
      }

      .cls-2 {
        fill: #222600;
      }
    </style>
  </defs>
  <g id="Layer_1-2" data-name="Layer 1">
    <rect class="cls-2" width="1080" height="1080" rx="195.6" ry="195.6"/>
    <path class="cls-1" d="M542.2,156.6c43.9,0,85.9,17.1,126.2,51.3,9.5-29.9,28.5-44.8,57-44.8,43.9,0,65.8,22.6,65.8,67.7s-1.5,25.5-4.4,45.9c-2.9,20.4-4.4,35.7-4.4,45.9s1.9,33.1,5.8,60.1c1.9,13.8,2.9,25.9,2.9,36,0,56.1-25.5,84.1-76.5,84.1s-68.8-22.9-71-68.8v-42.6c-1.5-21.8-9.5-40.8-24.1-56.8-14.5-16-31.1-24-49.8-24-35.8,0-63.6,18.6-83.3,55.7-19.8,37.1-29.6,89.6-29.6,157.3,0,162.4,35,243.6,104.9,243.6s71-32.4,71-97.2v-9.8c0-59,24.7-88.5,74.3-88.5s46.8,9.7,61.7,28.9c14.9,19.3,22.4,46.1,22.4,80.3,0,50.2-12.6,96-37.7,137.1-25.1,41.1-58.1,70.5-98.9,87.9-26.9,11.6-59.4,17.5-97.2,17.5-85.2,0-151.3-32.8-198.3-98.3-47-65.5-70.5-158-70.5-277.5s22.3-218.1,66.9-287.3c44.6-69.2,106.8-103.8,186.5-103.8Z"/>
  </g>
</svg>