<svg xmlns="http://www.w3.org/2000/svg" xmlns:xlink="http://www.w3.org/1999/xlink" width="1080" zoomAndPan="magnify" viewBox="0 0 810 809.999993" height="1080" preserveAspectRatio="xMidYMid meet" version="1.0"><defs><g/><clipPath id="4498f347a2"><path d="M 0 0 L 810 0 L 810 801.988281 L 0 801.988281 Z M 0 0 " clip-rule="nonzero"/></clipPath><clipPath id="f6d5a98755"><path d="M 75 0 L 735 0 C 776.421875 0 810 33.578125 810 75 L 810 726.988281 C 810 768.410156 776.421875 801.988281 735 801.988281 L 75 801.988281 C 33.578125 801.988281 0 768.410156 0 726.988281 L 0 75 C 0 33.578125 33.578125 0 75 0 Z M 75 0 " clip-rule="nonzero"/></clipPath><clipPath id="0ab1e04833"><path d="M 0 0 L 810 0 L 810 801.988281 L 0 801.988281 Z M 0 0 " clip-rule="nonzero"/></clipPath><clipPath id="79547a0388"><path d="M 75 0 L 735 0 C 776.421875 0 810 33.578125 810 75 L 810 726.988281 C 810 768.410156 776.421875 801.988281 735 801.988281 L 75 801.988281 C 33.578125 801.988281 0 768.410156 0 726.988281 L 0 75 C 0 33.578125 33.578125 0 75 0 Z M 75 0 " clip-rule="nonzero"/></clipPath><clipPath id="4165fed2d5"><rect x="0" width="810" y="0" height="802"/></clipPath><clipPath id="f94ea04a2a"><rect x="0" width="492" y="0" height="807"/></clipPath></defs><g clip-path="url(#4498f347a2)"><g clip-path="url(#f6d5a98755)"><g transform="matrix(1, 0, 0, 1, 0, 0.000000000000039746)"><g clip-path="url(#4165fed2d5)"><g clip-path="url(#0ab1e04833)"><g clip-path="url(#79547a0388)"><path fill="#19191a" d="M 0 0 L 811.386719 0 L 811.386719 801.988281 L 0 801.988281 Z M 0 0 " fill-opacity="1" fill-rule="nonzero"/></g></g></g></g></g></g><g transform="matrix(1, 0, 0, 1, 163, 0.000000000000039746)"><g clip-path="url(#f94ea04a2a)"><g fill="#ffffff" fill-opacity="1"><g transform="translate(0.705879, 642.330096)"><g><path d="M 15.359375 -252.0625 C 15.359375 -282.320312 21.0625 -312 32.46875 -341.09375 C 43.875 -370.1875 60.515625 -396.601562 82.390625 -420.34375 C 104.265625 -444.082031 130.910156 -463.050781 162.328125 -477.25 C 193.753906 -491.445312 229.25 -498.546875 268.8125 -498.546875 C 316.300781 -498.546875 357.734375 -488.648438 393.109375 -468.859375 C 428.484375 -449.078125 454.78125 -422.894531 472 -390.3125 L 367.96875 -316.296875 C 361.914062 -332.585938 353.1875 -345.15625 341.78125 -354 C 330.375 -362.84375 318.035156 -369.007812 304.765625 -372.5 C 291.503906 -376 278.59375 -377.75 266.03125 -377.75 C 246.476562 -377.75 229.601562 -373.90625 215.40625 -366.21875 C 201.207031 -358.539062 189.566406 -348.414062 180.484375 -335.84375 C 171.410156 -323.28125 164.660156 -309.316406 160.234375 -293.953125 C 155.816406 -278.597656 153.609375 -263.238281 153.609375 -247.875 C 153.609375 -230.644531 156.164062 -214.117188 161.28125 -198.296875 C 166.40625 -182.472656 173.851562 -168.390625 183.625 -156.046875 C 193.40625 -143.710938 205.394531 -134.054688 219.59375 -127.078125 C 233.789062 -120.097656 249.734375 -116.609375 267.421875 -116.609375 C 279.992188 -116.609375 292.796875 -118.582031 305.828125 -122.53125 C 318.859375 -126.488281 330.726562 -132.890625 341.4375 -141.734375 C 352.144531 -150.585938 360.289062 -162.457031 365.875 -177.34375 L 476.890625 -111.015625 C 467.117188 -86.816406 450.828125 -66.101562 428.015625 -48.875 C 405.203125 -31.65625 379.363281 -18.503906 350.5 -9.421875 C 321.644531 -0.347656 293.019531 4.1875 264.625 4.1875 C 227.851562 4.1875 194.222656 -3.140625 163.734375 -17.796875 C 133.242188 -32.460938 106.941406 -52.015625 84.828125 -76.453125 C 62.722656 -100.890625 45.617188 -128.351562 33.515625 -158.84375 C 21.410156 -189.332031 15.359375 -220.40625 15.359375 -252.0625 Z M 15.359375 -252.0625 "/></g></g></g></g></g></svg>