<svg xmlns="http://www.w3.org/2000/svg" xmlns:xlink="http://www.w3.org/1999/xlink" width="1920" zoomAndPan="magnify" viewBox="0 0 1440 525.000007" height="700" preserveAspectRatio="xMidYMid meet" version="1.0"><defs><filter x="0%" y="0%" width="100%" height="100%" id="f0387b7a79"><feColorMatrix values="0 0 0 0 1 0 0 0 0 1 0 0 0 0 1 0 0 0 1 0" color-interpolation-filters="sRGB"/></filter><mask id="beca2cf16b"><g filter="url(#f0387b7a79)"><rect x="-144" width="1728" fill="#000000" y="-52.500001" height="630.000008" fill-opacity="0.6"/></g></mask><clipPath id="a7a6db966c"><path d="M 0.484375 0.414062 L 1307.671875 0.414062 L 1307.671875 117.3125 L 0.484375 117.3125 Z M 0.484375 0.414062 " clip-rule="nonzero"/></clipPath><clipPath id="3d5e8aa0f8"><path d="M 0.484375 0.414062 L 734 0.414062 L 734 16 L 0.484375 16 Z M 0.484375 0.414062 " clip-rule="nonzero"/></clipPath><clipPath id="d4dd57d231"><path d="M 0.484375 26 L 323 26 L 323 41 L 0.484375 41 Z M 0.484375 26 " clip-rule="nonzero"/></clipPath><clipPath id="02e0eca399"><path d="M 0.484375 102 L 548 102 L 548 117.3125 L 0.484375 117.3125 Z M 0.484375 102 " clip-rule="nonzero"/></clipPath><clipPath id="ef7afefb5b"><path d="M 0.484375 77 L 323 77 L 323 92 L 0.484375 92 Z M 0.484375 77 " clip-rule="nonzero"/></clipPath><clipPath id="497b58a54d"><path d="M 752 0.414062 L 1075 0.414062 L 1075 16 L 752 16 Z M 752 0.414062 " clip-rule="nonzero"/></clipPath><clipPath id="8f5ed49821"><path d="M 565 102 L 959 102 L 959 117.3125 L 565 117.3125 Z M 565 102 " clip-rule="nonzero"/></clipPath><clipPath id="e52d87988d"><path d="M 0.484375 51 L 629 51 L 629 67 L 0.484375 67 Z M 0.484375 51 " clip-rule="nonzero"/></clipPath><clipPath id="15a978c98b"><rect x="0" width="1308" y="0" height="118"/></clipPath><clipPath id="29f2539a2d"><rect x="0" width="1308" y="0" height="118"/></clipPath><mask id="031a7b4361"><g filter="url(#f0387b7a79)"><rect x="-144" width="1728" fill="#000000" y="-52.500001" height="630.000008" fill-opacity="0.6"/></g></mask><clipPath id="abf1f178d4"><path d="M 0.484375 0.570312 L 1307.671875 0.570312 L 1307.671875 117.707031 L 0.484375 117.707031 Z M 0.484375 0.570312 " clip-rule="nonzero"/></clipPath><clipPath id="452f972a58"><path d="M 0.484375 0.570312 L 734 0.570312 L 734 16 L 0.484375 16 Z M 0.484375 0.570312 " clip-rule="nonzero"/></clipPath><clipPath id="f765a8443a"><path d="M 0.484375 26 L 323 26 L 323 41 L 0.484375 41 Z M 0.484375 26 " clip-rule="nonzero"/></clipPath><clipPath id="73e56449f6"><path d="M 0.484375 102 L 548 102 L 548 117.707031 L 0.484375 117.707031 Z M 0.484375 102 " clip-rule="nonzero"/></clipPath><clipPath id="f880fac2de"><path d="M 0.484375 77 L 323 77 L 323 92 L 0.484375 92 Z M 0.484375 77 " clip-rule="nonzero"/></clipPath><clipPath id="1b6d32c480"><path d="M 752 0.570312 L 1075 0.570312 L 1075 16 L 752 16 Z M 752 0.570312 " clip-rule="nonzero"/></clipPath><clipPath id="e43ec9b52e"><path d="M 565 102 L 959 102 L 959 117.707031 L 565 117.707031 Z M 565 102 " clip-rule="nonzero"/></clipPath><clipPath id="16e6d0a52e"><path d="M 0.484375 51 L 629 51 L 629 67 L 0.484375 67 Z M 0.484375 51 " clip-rule="nonzero"/></clipPath><clipPath id="e803f26fd2"><rect x="0" width="1308" y="0" height="118"/></clipPath><clipPath id="86fe047fbb"><rect x="0" width="1308" y="0" height="118"/></clipPath></defs><g mask="url(#beca2cf16b)"><g transform="matrix(1, 0, 0, 1, 67, 139)"><g clip-path="url(#29f2539a2d)"><g clip-path="url(#a7a6db966c)"><g transform="matrix(1, 0, 0, 1, 0, 0.000000000000113687)"><g clip-path="url(#15a978c98b)"><g clip-path="url(#3d5e8aa0f8)"><path stroke-linecap="round" transform="matrix(2.430031, 0, 0, 2.430031, 0.59966, 0.523973)" fill="none" stroke-linejoin="miter" d="M 3.000359 2.999356 L 298.733484 2.999356 " stroke="#e79210" stroke-width="6" stroke-opacity="1" stroke-miterlimit="4"/></g><g clip-path="url(#d4dd57d231)"><path stroke-linecap="round" transform="matrix(2.430031, 0, 0, 2.430031, 0.59966, 26.188032)" fill="none" stroke-linejoin="miter" d="M 3.000359 2.999357 L 129.498559 2.999357 " stroke="#e79210" stroke-width="6" stroke-opacity="1" stroke-miterlimit="4"/></g><g clip-path="url(#02e0eca399)"><path stroke-linecap="round" transform="matrix(2.430031, 0, 0, 2.430031, 0.59966, 102.687672)" fill="none" stroke-linejoin="miter" d="M 3.000359 2.999505 L 221.942086 2.999505 " stroke="#e79210" stroke-width="6" stroke-opacity="1" stroke-miterlimit="4"/></g><g clip-path="url(#ef7afefb5b)"><path stroke-linecap="round" transform="matrix(2.430031, 0, 0, 2.430031, 0.59966, 77.187803)" fill="none" stroke-linejoin="miter" d="M 3.000359 2.999451 L 129.498559 2.999451 " stroke="#e79210" stroke-width="6" stroke-opacity="1" stroke-miterlimit="4"/></g><g clip-path="url(#497b58a54d)"><path stroke-linecap="round" transform="matrix(2.430031, 0, 0, 2.430031, 752.110082, 0.523973)" fill="none" stroke-linejoin="miter" d="M 2.999285 2.999356 L 129.499092 2.999356 " stroke="#e79210" stroke-width="6" stroke-opacity="1" stroke-miterlimit="4"/></g><path stroke-linecap="round" transform="matrix(2.430031, 0, 0, 2.430031, 341.162735, 26.188032)" fill="none" stroke-linejoin="miter" d="M 3.000123 2.999357 L 158.585851 2.999357 " stroke="#e79210" stroke-width="6" stroke-opacity="1" stroke-miterlimit="4"/><path stroke-linecap="round" transform="matrix(2.430031, 0, 0, 2.430031, 752.110082, 77.187803)" fill="none" stroke-linejoin="miter" d="M 2.999285 2.999451 L 158.586621 2.999451 " stroke="#e79210" stroke-width="6" stroke-opacity="1" stroke-miterlimit="4"/><path stroke-linecap="round" transform="matrix(2.430031, 0, 0, 2.430031, 341.162735, 77.187803)" fill="none" stroke-linejoin="miter" d="M 3.000123 2.999451 L 158.585851 2.999451 " stroke="#e79210" stroke-width="6" stroke-opacity="1" stroke-miterlimit="4"/><path stroke-linecap="round" transform="matrix(2.430031, 0, 0, 2.430031, 648.282947, 51.687919)" fill="none" stroke-linejoin="miter" d="M 3.000485 2.999404 L 158.586214 2.999404 " stroke="#e79210" stroke-width="6" stroke-opacity="1" stroke-miterlimit="4"/><g clip-path="url(#8f5ed49821)"><path stroke-linecap="round" transform="matrix(2.430031, 0, 0, 2.430031, 565.461832, 102.687672)" fill="none" stroke-linejoin="miter" d="M 2.999208 2.999505 L 158.586544 2.999505 " stroke="#e79210" stroke-width="6" stroke-opacity="1" stroke-miterlimit="4"/></g><path stroke-linecap="round" transform="matrix(2.430031, 0, 0, 2.430031, 752.110082, 26.188032)" fill="none" stroke-linejoin="miter" d="M 2.999285 2.999357 L 107.081039 2.999357 " stroke="#e79210" stroke-width="6" stroke-opacity="1" stroke-miterlimit="4"/><path stroke-linecap="round" transform="matrix(2.430031, 0, 0, 2.430031, 1037.89889, 26.188032)" fill="none" stroke-linejoin="miter" d="M 2.99939 2.999357 L 107.081143 2.999357 " stroke="#e79210" stroke-width="6" stroke-opacity="1" stroke-miterlimit="4"/><g clip-path="url(#e52d87988d)"><path stroke-linecap="round" transform="matrix(2.430031, 0, 0, 2.430031, 0.59966, 51.687919)" fill="none" stroke-linejoin="miter" d="M 3.000359 2.999404 L 255.582026 2.999404 " stroke="#e79210" stroke-width="6" stroke-opacity="1" stroke-miterlimit="4"/></g></g></g></g></g></g></g><g mask="url(#031a7b4361)"><g transform="matrix(1, 0, 0, 1, 67, 267)"><g clip-path="url(#86fe047fbb)"><g clip-path="url(#abf1f178d4)"><g transform="matrix(1, 0, 0, 1, 0, 0.000000000000113687)"><g clip-path="url(#e803f26fd2)"><g clip-path="url(#452f972a58)"><path stroke-linecap="round" transform="matrix(2.430031, 0, 0, 2.430031, 0.59966, 0.734047)" fill="none" stroke-linejoin="miter" d="M 3.000359 2.999711 L 298.733484 2.999711 " stroke="#e79210" stroke-width="6" stroke-opacity="1" stroke-miterlimit="4"/></g><g clip-path="url(#f765a8443a)"><path stroke-linecap="round" transform="matrix(2.430031, 0, 0, 2.430031, 0.59966, 26.398092)" fill="none" stroke-linejoin="miter" d="M 3.000359 2.999718 L 129.498559 2.999718 " stroke="#e79210" stroke-width="6" stroke-opacity="1" stroke-miterlimit="4"/></g><g clip-path="url(#73e56449f6)"><path stroke-linecap="round" transform="matrix(2.430031, 0, 0, 2.430031, 0.59966, 102.897747)" fill="none" stroke-linejoin="miter" d="M 3.000359 2.99986 L 221.942086 2.99986 " stroke="#e79210" stroke-width="6" stroke-opacity="1" stroke-miterlimit="4"/></g><g clip-path="url(#f880fac2de)"><path stroke-linecap="round" transform="matrix(2.430031, 0, 0, 2.430031, 0.59966, 77.397863)" fill="none" stroke-linejoin="miter" d="M 3.000359 2.999812 L 129.498559 2.999812 " stroke="#e79210" stroke-width="6" stroke-opacity="1" stroke-miterlimit="4"/></g><g clip-path="url(#1b6d32c480)"><path stroke-linecap="round" transform="matrix(2.430031, 0, 0, 2.430031, 752.110082, 0.734047)" fill="none" stroke-linejoin="miter" d="M 2.999285 2.999711 L 129.499092 2.999711 " stroke="#e79210" stroke-width="6" stroke-opacity="1" stroke-miterlimit="4"/></g><path stroke-linecap="round" transform="matrix(2.430031, 0, 0, 2.430031, 341.162735, 26.398092)" fill="none" stroke-linejoin="miter" d="M 3.000123 2.999718 L 158.585851 2.999718 " stroke="#e79210" stroke-width="6" stroke-opacity="1" stroke-miterlimit="4"/><path stroke-linecap="round" transform="matrix(2.430031, 0, 0, 2.430031, 752.110082, 77.397863)" fill="none" stroke-linejoin="miter" d="M 2.999285 2.999812 L 158.586621 2.999812 " stroke="#e79210" stroke-width="6" stroke-opacity="1" stroke-miterlimit="4"/><path stroke-linecap="round" transform="matrix(2.430031, 0, 0, 2.430031, 341.162735, 77.397863)" fill="none" stroke-linejoin="miter" d="M 3.000123 2.999812 L 158.585851 2.999812 " stroke="#e79210" stroke-width="6" stroke-opacity="1" stroke-miterlimit="4"/><path stroke-linecap="round" transform="matrix(2.430031, 0, 0, 2.430031, 648.282947, 51.897977)" fill="none" stroke-linejoin="miter" d="M 3.000485 2.999766 L 158.586214 2.999766 " stroke="#e79210" stroke-width="6" stroke-opacity="1" stroke-miterlimit="4"/><g clip-path="url(#e43ec9b52e)"><path stroke-linecap="round" transform="matrix(2.430031, 0, 0, 2.430031, 565.461832, 102.897747)" fill="none" stroke-linejoin="miter" d="M 2.999208 2.99986 L 158.586544 2.99986 " stroke="#e79210" stroke-width="6" stroke-opacity="1" stroke-miterlimit="4"/></g><path stroke-linecap="round" transform="matrix(2.430031, 0, 0, 2.430031, 752.110082, 26.398092)" fill="none" stroke-linejoin="miter" d="M 2.999285 2.999718 L 107.081039 2.999718 " stroke="#e79210" stroke-width="6" stroke-opacity="1" stroke-miterlimit="4"/><path stroke-linecap="round" transform="matrix(2.430031, 0, 0, 2.430031, 1037.89889, 26.398092)" fill="none" stroke-linejoin="miter" d="M 2.99939 2.999718 L 107.081143 2.999718 " stroke="#e79210" stroke-width="6" stroke-opacity="1" stroke-miterlimit="4"/><g clip-path="url(#16e6d0a52e)"><path stroke-linecap="round" transform="matrix(2.430031, 0, 0, 2.430031, 0.59966, 51.897977)" fill="none" stroke-linejoin="miter" d="M 3.000359 2.999766 L 255.582026 2.999766 " stroke="#e79210" stroke-width="6" stroke-opacity="1" stroke-miterlimit="4"/></g></g></g></g></g></g></g></svg>